<svg width="204" height="215" viewBox="0 0 204 215" fill="none" xmlns="http://www.w3.org/2000/svg">
<ellipse cx="102" cy="112.5" rx="102" ry="102.5" fill="white"/>
<circle cx="166.5" cy="37.5" r="37.5" fill="white"/>
<path d="M152.128 55.48C160.144 55.48 166.192 49.24 166.192 38.2C166.192 27.16 160.144 20.92 152.128 20.92C144.16 20.92 138.112 27.16 138.112 38.2C138.112 49.24 144.16 55.48 152.128 55.48ZM152.128 50.056C147.568 50.056 144.4 46.312 144.4 38.2C144.4 30.088 147.568 26.344 152.128 26.344C156.736 26.344 159.904 30.088 159.904 38.2C159.904 46.312 156.736 50.056 152.128 50.056ZM184.244 35.272L192.404 25.576V21.4H169.508V26.632H184.772L177.14 35.704V39.976H180.212C185.3 39.976 187.508 41.944 187.508 44.968C187.508 48.088 184.868 50.056 180.404 50.056C176.612 50.056 172.964 48.76 170.564 46.744L167.876 51.592C170.996 54.04 175.748 55.48 180.5 55.48C189.524 55.48 193.796 50.584 193.796 44.92C193.796 39.88 190.58 36.088 184.244 35.272Z" fill="#4200FF"/>
<path d="M153.216 77.6292H79.9917C77.0881 77.6292 77.0841 82.1518 79.9917 82.1518H153.216C154.463 82.1518 155.477 83.1662 155.477 84.4131V137.852C155.477 139.099 154.463 140.113 153.216 140.113H113.622C112.93 140.113 112.276 140.43 111.847 140.974L102.726 152.529L93.0514 140.927C92.6218 140.411 91.9855 140.113 91.3145 140.113H52.784C51.5371 140.113 50.5226 139.099 50.5226 137.852V84.4131C50.5226 83.1662 51.5371 82.1518 52.784 82.1518H61.3887C64.2922 82.1518 64.2963 77.6292 61.3887 77.6292H52.784C49.0433 77.6292 46 80.6724 46 84.4131V137.852C46 141.593 49.0433 144.636 52.784 144.636H90.256L101.037 157.566C101.947 158.658 103.668 158.636 104.549 157.519L114.718 144.636H153.216C156.957 144.636 160 141.593 160 137.852V84.4131C160 80.6724 156.957 77.6292 153.216 77.6292Z" fill="#4200FF"/>
<path d="M58.5225 106.724C58.283 107.461 58.4375 108.269 58.9318 108.865L63.3348 114.181L62.8972 121.07C62.5535 126.467 70.6558 120.736 72.4038 120.77C74.167 120.806 82.2503 126.406 81.9104 121.07L81.4726 114.181L85.8758 108.865C86.9043 107.624 86.2666 105.634 84.6952 105.232L78.0087 103.52L74.3137 97.69C73.451 96.3282 71.3618 96.3199 70.4937 97.69L66.7987 103.52L60.1122 105.232C59.3617 105.424 58.762 105.987 58.5225 106.724ZM68.7896 107.678C70.4613 107.251 71.5617 104.453 72.4036 103.124C73.2319 104.431 74.3619 107.255 76.0176 107.678L80.1165 108.728L77.4172 111.987C77.0497 112.43 76.8654 112.998 76.902 113.573L77.1704 117.796L73.2373 116.235C72.7016 116.023 72.1053 116.023 71.5696 116.235L67.6365 117.796L67.9047 113.573C67.9413 112.998 67.757 112.43 67.3896 111.987L64.6905 108.728L68.7896 107.678Z" fill="#4200FF"/>
<path d="M116.655 106.724C116.416 105.987 115.816 105.424 115.065 105.232L108.379 103.52L104.684 97.6897C103.821 96.328 101.732 96.3196 100.864 97.6897L97.1688 103.52L90.4823 105.232C89.7318 105.424 89.1319 105.987 88.8926 106.724C88.6534 107.461 88.8076 108.269 89.3019 108.865L93.7052 114.181L93.2674 121.07C92.9234 126.466 101.026 120.736 102.774 120.77C104.537 120.806 112.62 126.406 112.281 121.07L111.843 114.181L116.246 108.865C116.74 108.269 116.895 107.461 116.655 106.724ZM107.788 111.987C107.42 112.43 107.236 112.998 107.272 113.573L107.541 117.796C106.129 117.235 104.325 116.076 102.774 116.076C101.23 116.076 99.4154 117.237 98.0071 117.796L98.2755 113.573C98.3121 112.998 98.1279 112.43 97.7604 111.987L95.0611 108.728L99.1599 107.678C100.832 107.251 101.932 104.453 102.774 103.124C103.602 104.431 104.732 107.255 106.388 107.678L110.487 108.728L107.788 111.987Z" fill="#4200FF"/>
<path d="M147.025 106.724C146.786 105.987 146.186 105.424 145.436 105.232L138.749 103.52L135.054 97.6897C134.191 96.328 132.102 96.3196 131.234 97.6897L127.539 103.52L120.853 105.232C119.291 105.632 118.637 107.616 119.672 108.865L124.075 114.181L123.637 121.07C123.294 126.465 131.392 120.735 133.144 120.77C134.904 120.805 142.99 126.407 142.65 121.07L142.213 114.181L146.616 108.865C147.11 108.269 147.265 107.461 147.025 106.724ZM138.158 111.987C137.79 112.43 137.606 112.998 137.643 113.573L137.911 117.796L133.978 116.235C133.422 116.023 132.866 116.023 132.31 116.235L128.377 117.796L128.645 113.573C128.682 112.998 128.498 112.43 128.13 111.987L125.431 108.728L129.53 107.678C131.202 107.251 132.302 104.453 133.144 103.124C133.972 104.431 135.102 107.255 136.758 107.678L140.857 108.728L138.158 111.987Z" fill="#4200FF"/>
<path d="M69.4853 81.7692C71.1874 82.9356 73.4598 81.2407 72.9169 79.2879C72.6584 78.358 71.8156 77.6807 70.8503 77.6328C69.8872 77.5851 68.9768 78.1791 68.6308 79.0778C68.2581 80.0465 68.6111 81.1978 69.4853 81.7692Z" fill="#4200FF"/>
</svg>
