<svg xmlns="http://www.w3.org/2000/svg" viewBox="0 0 262.51 262.51"><defs><style>.cls-1,.cls-2{fill:#fff;}.cls-1{stroke:silver;}</style></defs><g id="Слой_2" data-name="Слой 2"><g id="Слой_1-2" data-name="Слой 1"><rect class="cls-1" x="0.5" y="0.5" width="261.51" height="261.51"/><path class="cls-2" d="M261.08,1.43H1.43V261.08H261.08Z"/><path d="M19.6,14.41H14.41V19.6H19.6Z"/><path d="M24.8,14.41H19.6V19.6h5.2Z"/><path d="M30,14.41H24.8V19.6H30Z"/><path d="M35.18,14.41H30V19.6h5.19Z"/><path d="M40.38,14.41h-5.2V19.6h5.2Z"/><path d="M45.57,14.41H40.38V19.6h5.19Z"/><path d="M50.76,14.41H45.57V19.6h5.19Z"/><path d="M66.34,14.41H61.15V19.6h5.19Z"/><path d="M76.73,14.41h-5.2V19.6h5.2Z"/><path d="M102.69,14.41H97.5V19.6h5.19Z"/><path d="M107.88,14.41h-5.19V19.6h5.19Z"/><path d="M128.66,14.41h-5.2V19.6h5.2Z"/><path d="M133.85,14.41h-5.19V19.6h5.19Z"/><path d="M149.43,14.41h-5.19V19.6h5.19Z"/><path d="M159.82,14.41h-5.2V19.6h5.2Z"/><path d="M165,14.41h-5.19V19.6H165Z"/><path d="M170.2,14.41H165V19.6h5.19Z"/><path d="M175.4,14.41h-5.2V19.6h5.2Z"/><path d="M191,14.41h-5.19V19.6H191Z"/><path d="M206.55,14.41h-5.19V19.6h5.19Z"/><path d="M216.94,14.41h-5.19V19.6h5.19Z"/><path d="M222.13,14.41h-5.19V19.6h5.19Z"/><path d="M227.33,14.41h-5.2V19.6h5.2Z"/><path d="M232.52,14.41h-5.19V19.6h5.19Z"/><path d="M237.71,14.41h-5.19V19.6h5.19Z"/><path d="M242.91,14.41h-5.2V19.6h5.2Z"/><path d="M248.1,14.41h-5.19V19.6h5.19Z"/><path d="M19.6,19.6H14.41v5.2H19.6Z"/><path d="M50.76,19.6H45.57v5.2h5.19Z"/><path d="M61.15,19.6H56v5.2h5.2Z"/><path d="M71.53,19.6H66.34v5.2h5.19Z"/><path d="M76.73,19.6h-5.2v5.2h5.2Z"/><path d="M97.5,19.6H92.31v5.2H97.5Z"/><path d="M102.69,19.6H97.5v5.2h5.19Z"/><path d="M113.08,19.6h-5.19v5.2h5.19Z"/><path d="M128.66,19.6h-5.2v5.2h5.2Z"/><path d="M144.24,19.6H139v5.2h5.2Z"/><path d="M154.62,19.6h-5.19v5.2h5.19Z"/><path d="M159.82,19.6h-5.2v5.2h5.2Z"/><path d="M191,19.6h-5.19v5.2H191Z"/><path d="M201.36,19.6h-5.19v5.2h5.19Z"/><path d="M216.94,19.6h-5.19v5.2h5.19Z"/><path d="M248.1,19.6h-5.19v5.2h5.19Z"/><path d="M19.6,24.8H14.41V30H19.6Z"/><path d="M30,24.8H24.8V30H30Z"/><path d="M35.18,24.8H30V30h5.19Z"/><path d="M40.38,24.8h-5.2V30h5.2Z"/><path d="M50.76,24.8H45.57V30h5.19Z"/><path d="M66.34,24.8H61.15V30h5.19Z"/><path d="M71.53,24.8H66.34V30h5.19Z"/><path d="M87.11,24.8H81.92V30h5.19Z"/><path d="M92.31,24.8h-5.2V30h5.2Z"/><path d="M102.69,24.8H97.5V30h5.19Z"/><path d="M107.88,24.8h-5.19V30h5.19Z"/><path d="M118.27,24.8h-5.19V30h5.19Z"/><path d="M128.66,24.8h-5.2V30h5.2Z"/><path d="M139,24.8h-5.19V30H139Z"/><path d="M149.43,24.8h-5.19V30h5.19Z"/><path d="M154.62,24.8h-5.19V30h5.19Z"/><path d="M159.82,24.8h-5.2V30h5.2Z"/><path d="M165,24.8h-5.19V30H165Z"/><path d="M175.4,24.8h-5.2V30h5.2Z"/><path d="M180.59,24.8H175.4V30h5.19Z"/><path d="M185.78,24.8h-5.19V30h5.19Z"/><path d="M191,24.8h-5.19V30H191Z"/><path d="M201.36,24.8h-5.19V30h5.19Z"/><path d="M216.94,24.8h-5.19V30h5.19Z"/><path d="M227.33,24.8h-5.2V30h5.2Z"/><path d="M232.52,24.8h-5.19V30h5.19Z"/><path d="M237.71,24.8h-5.19V30h5.19Z"/><path d="M248.1,24.8h-5.19V30h5.19Z"/><path d="M19.6,30H14.41v5.19H19.6Z"/><path d="M30,30H24.8v5.19H30Z"/><path d="M35.18,30H30v5.19h5.19Z"/><path d="M40.38,30h-5.2v5.19h5.2Z"/><path d="M50.76,30H45.57v5.19h5.19Z"/><path d="M61.15,30H56v5.19h5.2Z"/><path d="M66.34,30H61.15v5.19h5.19Z"/><path d="M71.53,30H66.34v5.19h5.19Z"/><path d="M76.73,30h-5.2v5.19h5.2Z"/><path d="M102.69,30H97.5v5.19h5.19Z"/><path d="M113.08,30h-5.19v5.19h5.19Z"/><path d="M118.27,30h-5.19v5.19h5.19Z"/><path d="M123.46,30h-5.19v5.19h5.19Z"/><path d="M133.85,30h-5.19v5.19h5.19Z"/><path d="M144.24,30H139v5.19h5.2Z"/><path d="M149.43,30h-5.19v5.19h5.19Z"/><path d="M170.2,30H165v5.19h5.19Z"/><path d="M175.4,30h-5.2v5.19h5.2Z"/><path d="M191,30h-5.19v5.19H191Z"/><path d="M201.36,30h-5.19v5.19h5.19Z"/><path d="M206.55,30h-5.19v5.19h5.19Z"/><path d="M216.94,30h-5.19v5.19h5.19Z"/><path d="M227.33,30h-5.2v5.19h5.2Z"/><path d="M232.52,30h-5.19v5.19h5.19Z"/><path d="M237.71,30h-5.19v5.19h5.19Z"/><path d="M248.1,30h-5.19v5.19h5.19Z"/><path d="M19.6,35.18H14.41v5.2H19.6Z"/><path d="M30,35.18H24.8v5.2H30Z"/><path d="M35.18,35.18H30v5.2h5.19Z"/><path d="M40.38,35.18h-5.2v5.2h5.2Z"/><path d="M50.76,35.18H45.57v5.2h5.19Z"/><path d="M81.92,35.18H76.73v5.2h5.19Z"/><path d="M87.11,35.18H81.92v5.2h5.19Z"/><path d="M92.31,35.18h-5.2v5.2h5.2Z"/><path d="M97.5,35.18H92.31v5.2H97.5Z"/><path d="M107.88,35.18h-5.19v5.2h5.19Z"/><path d="M123.46,35.18h-5.19v5.2h5.19Z"/><path d="M128.66,35.18h-5.2v5.2h5.2Z"/><path d="M133.85,35.18h-5.19v5.2h5.19Z"/><path d="M139,35.18h-5.19v5.2H139Z"/><path d="M144.24,35.18H139v5.2h5.2Z"/><path d="M159.82,35.18h-5.2v5.2h5.2Z"/><path d="M170.2,35.18H165v5.2h5.19Z"/><path d="M175.4,35.18h-5.2v5.2h5.2Z"/><path d="M185.78,35.18h-5.19v5.2h5.19Z"/><path d="M196.17,35.18H191v5.2h5.19Z"/><path d="M201.36,35.18h-5.19v5.2h5.19Z"/><path d="M206.55,35.18h-5.19v5.2h5.19Z"/><path d="M216.94,35.18h-5.19v5.2h5.19Z"/><path d="M227.33,35.18h-5.2v5.2h5.2Z"/><path d="M232.52,35.18h-5.19v5.2h5.19Z"/><path d="M237.71,35.18h-5.19v5.2h5.19Z"/><path d="M248.1,35.18h-5.19v5.2h5.19Z"/><path d="M19.6,40.38H14.41v5.19H19.6Z"/><path d="M50.76,40.38H45.57v5.19h5.19Z"/><path d="M61.15,40.38H56v5.19h5.2Z"/><path d="M66.34,40.38H61.15v5.19h5.19Z"/><path d="M71.53,40.38H66.34v5.19h5.19Z"/><path d="M97.5,40.38H92.31v5.19H97.5Z"/><path d="M102.69,40.38H97.5v5.19h5.19Z"/><path d="M107.88,40.38h-5.19v5.19h5.19Z"/><path d="M113.08,40.38h-5.19v5.19h5.19Z"/><path d="M123.46,40.38h-5.19v5.19h5.19Z"/><path d="M144.24,40.38H139v5.19h5.2Z"/><path d="M149.43,40.38h-5.19v5.19h5.19Z"/><path d="M154.62,40.38h-5.19v5.19h5.19Z"/><path d="M159.82,40.38h-5.2v5.19h5.2Z"/><path d="M165,40.38h-5.19v5.19H165Z"/><path d="M216.94,40.38h-5.19v5.19h5.19Z"/><path d="M248.1,40.38h-5.19v5.19h5.19Z"/><path d="M19.6,45.57H14.41v5.19H19.6Z"/><path d="M24.8,45.57H19.6v5.19h5.2Z"/><path d="M30,45.57H24.8v5.19H30Z"/><path d="M35.18,45.57H30v5.19h5.19Z"/><path d="M40.38,45.57h-5.2v5.19h5.2Z"/><path d="M45.57,45.57H40.38v5.19h5.19Z"/><path d="M50.76,45.57H45.57v5.19h5.19Z"/><path d="M61.15,45.57H56v5.19h5.2Z"/><path d="M71.53,45.57H66.34v5.19h5.19Z"/><path d="M81.92,45.57H76.73v5.19h5.19Z"/><path d="M92.31,45.57h-5.2v5.19h5.2Z"/><path d="M102.69,45.57H97.5v5.19h5.19Z"/><path d="M113.08,45.57h-5.19v5.19h5.19Z"/><path d="M123.46,45.57h-5.19v5.19h5.19Z"/><path d="M133.85,45.57h-5.19v5.19h5.19Z"/><path d="M144.24,45.57H139v5.19h5.2Z"/><path d="M154.62,45.57h-5.19v5.19h5.19Z"/><path d="M165,45.57h-5.19v5.19H165Z"/><path d="M175.4,45.57h-5.2v5.19h5.2Z"/><path d="M185.78,45.57h-5.19v5.19h5.19Z"/><path d="M196.17,45.57H191v5.19h5.19Z"/><path d="M206.55,45.57h-5.19v5.19h5.19Z"/><path d="M216.94,45.57h-5.19v5.19h5.19Z"/><path d="M222.13,45.57h-5.19v5.19h5.19Z"/><path d="M227.33,45.57h-5.2v5.19h5.2Z"/><path d="M232.52,45.57h-5.19v5.19h5.19Z"/><path d="M237.71,45.57h-5.19v5.19h5.19Z"/><path d="M242.91,45.57h-5.2v5.19h5.2Z"/><path d="M248.1,45.57h-5.19v5.19h5.19Z"/><path d="M76.73,50.76h-5.2V56h5.2Z"/><path d="M81.92,50.76H76.73V56h5.19Z"/><path d="M87.11,50.76H81.92V56h5.19Z"/><path d="M113.08,50.76h-5.19V56h5.19Z"/><path d="M123.46,50.76h-5.19V56h5.19Z"/><path d="M144.24,50.76H139V56h5.2Z"/><path d="M154.62,50.76h-5.19V56h5.19Z"/><path d="M165,50.76h-5.19V56H165Z"/><path d="M170.2,50.76H165V56h5.19Z"/><path d="M180.59,50.76H175.4V56h5.19Z"/><path d="M185.78,50.76h-5.19V56h5.19Z"/><path d="M196.17,50.76H191V56h5.19Z"/><path d="M206.55,50.76h-5.19V56h5.19Z"/><path d="M19.6,56H14.41v5.2H19.6Z"/><path d="M24.8,56H19.6v5.2h5.2Z"/><path d="M30,56H24.8v5.2H30Z"/><path d="M35.18,56H30v5.2h5.19Z"/><path d="M40.38,56h-5.2v5.2h5.2Z"/><path d="M50.76,56H45.57v5.2h5.19Z"/><path d="M56,56H50.76v5.2H56Z"/><path d="M61.15,56H56v5.2h5.2Z"/><path d="M66.34,56H61.15v5.2h5.19Z"/><path d="M71.53,56H66.34v5.2h5.19Z"/><path d="M76.73,56h-5.2v5.2h5.2Z"/><path d="M81.92,56H76.73v5.2h5.19Z"/><path d="M97.5,56H92.31v5.2H97.5Z"/><path d="M113.08,56h-5.19v5.2h5.19Z"/><path d="M123.46,56h-5.19v5.2h5.19Z"/><path d="M128.66,56h-5.2v5.2h5.2Z"/><path d="M133.85,56h-5.19v5.2h5.19Z"/><path d="M139,56h-5.19v5.2H139Z"/><path d="M144.24,56H139v5.2h5.2Z"/><path d="M149.43,56h-5.19v5.2h5.19Z"/><path d="M175.4,56h-5.2v5.2h5.2Z"/><path d="M180.59,56H175.4v5.2h5.19Z"/><path d="M191,56h-5.19v5.2H191Z"/><path d="M196.17,56H191v5.2h5.19Z"/><path d="M211.75,56h-5.19v5.2h5.19Z"/><path d="M222.13,56h-5.19v5.2h5.19Z"/><path d="M232.52,56h-5.19v5.2h5.19Z"/><path d="M242.91,56h-5.2v5.2h5.2Z"/><path d="M24.8,61.15H19.6v5.19h5.2Z"/><path d="M35.18,61.15H30v5.19h5.19Z"/><path d="M45.57,61.15H40.38v5.19h5.19Z"/><path d="M56,61.15H50.76v5.19H56Z"/><path d="M66.34,61.15H61.15v5.19h5.19Z"/><path d="M81.92,61.15H76.73v5.19h5.19Z"/><path d="M87.11,61.15H81.92v5.19h5.19Z"/><path d="M97.5,61.15H92.31v5.19H97.5Z"/><path d="M107.88,61.15h-5.19v5.19h5.19Z"/><path d="M133.85,61.15h-5.19v5.19h5.19Z"/><path d="M139,61.15h-5.19v5.19H139Z"/><path d="M159.82,61.15h-5.2v5.19h5.2Z"/><path d="M165,61.15h-5.19v5.19H165Z"/><path d="M170.2,61.15H165v5.19h5.19Z"/><path d="M175.4,61.15h-5.2v5.19h5.2Z"/><path d="M180.59,61.15H175.4v5.19h5.19Z"/><path d="M185.78,61.15h-5.19v5.19h5.19Z"/><path d="M206.55,61.15h-5.19v5.19h5.19Z"/><path d="M227.33,61.15h-5.2v5.19h5.2Z"/><path d="M237.71,61.15h-5.19v5.19h5.19Z"/><path d="M242.91,61.15h-5.2v5.19h5.2Z"/><path d="M248.1,61.15h-5.19v5.19h5.19Z"/><path d="M24.8,66.34H19.6v5.19h5.2Z"/><path d="M30,66.34H24.8v5.19H30Z"/><path d="M50.76,66.34H45.57v5.19h5.19Z"/><path d="M61.15,66.34H56v5.19h5.2Z"/><path d="M76.73,66.34h-5.2v5.19h5.2Z"/><path d="M81.92,66.34H76.73v5.19h5.19Z"/><path d="M97.5,66.34H92.31v5.19H97.5Z"/><path d="M102.69,66.34H97.5v5.19h5.19Z"/><path d="M113.08,66.34h-5.19v5.19h5.19Z"/><path d="M123.46,66.34h-5.19v5.19h5.19Z"/><path d="M133.85,66.34h-5.19v5.19h5.19Z"/><path d="M144.24,66.34H139v5.19h5.2Z"/><path d="M154.62,66.34h-5.19v5.19h5.19Z"/><path d="M159.82,66.34h-5.2v5.19h5.2Z"/><path d="M180.59,66.34H175.4v5.19h5.19Z"/><path d="M185.78,66.34h-5.19v5.19h5.19Z"/><path d="M191,66.34h-5.19v5.19H191Z"/><path d="M196.17,66.34H191v5.19h5.19Z"/><path d="M201.36,66.34h-5.19v5.19h5.19Z"/><path d="M206.55,66.34h-5.19v5.19h5.19Z"/><path d="M216.94,66.34h-5.19v5.19h5.19Z"/><path d="M232.52,66.34h-5.19v5.19h5.19Z"/><path d="M237.71,66.34h-5.19v5.19h5.19Z"/><path d="M242.91,66.34h-5.2v5.19h5.2Z"/><path d="M19.6,71.53H14.41v5.2H19.6Z"/><path d="M24.8,71.53H19.6v5.2h5.2Z"/><path d="M30,71.53H24.8v5.2H30Z"/><path d="M45.57,71.53H40.38v5.2h5.19Z"/><path d="M56,71.53H50.76v5.2H56Z"/><path d="M61.15,71.53H56v5.2h5.2Z"/><path d="M66.34,71.53H61.15v5.2h5.19Z"/><path d="M71.53,71.53H66.34v5.2h5.19Z"/><path d="M81.92,71.53H76.73v5.2h5.19Z"/><path d="M92.31,71.53h-5.2v5.2h5.2Z"/><path d="M97.5,71.53H92.31v5.2H97.5Z"/><path d="M113.08,71.53h-5.19v5.2h5.19Z"/><path d="M118.27,71.53h-5.19v5.2h5.19Z"/><path d="M139,71.53h-5.19v5.2H139Z"/><path d="M165,71.53h-5.19v5.2H165Z"/><path d="M170.2,71.53H165v5.2h5.19Z"/><path d="M175.4,71.53h-5.2v5.2h5.2Z"/><path d="M180.59,71.53H175.4v5.2h5.19Z"/><path d="M185.78,71.53h-5.19v5.2h5.19Z"/><path d="M191,71.53h-5.19v5.2H191Z"/><path d="M196.17,71.53H191v5.2h5.19Z"/><path d="M201.36,71.53h-5.19v5.2h5.19Z"/><path d="M206.55,71.53h-5.19v5.2h5.19Z"/><path d="M211.75,71.53h-5.19v5.2h5.19Z"/><path d="M216.94,71.53h-5.19v5.2h5.19Z"/><path d="M222.13,71.53h-5.19v5.2h5.19Z"/><path d="M227.33,71.53h-5.2v5.2h5.2Z"/><path d="M237.71,71.53h-5.19v5.2h5.19Z"/><path d="M24.8,76.73H19.6v5.19h5.2Z"/><path d="M30,76.73H24.8v5.19H30Z"/><path d="M40.38,76.73h-5.2v5.19h5.2Z"/><path d="M50.76,76.73H45.57v5.19h5.19Z"/><path d="M61.15,76.73H56v5.19h5.2Z"/><path d="M66.34,76.73H61.15v5.19h5.19Z"/><path d="M71.53,76.73H66.34v5.19h5.19Z"/><path d="M81.92,76.73H76.73v5.19h5.19Z"/><path d="M102.69,76.73H97.5v5.19h5.19Z"/><path d="M113.08,76.73h-5.19v5.19h5.19Z"/><path d="M128.66,76.73h-5.2v5.19h5.2Z"/><path d="M144.24,76.73H139v5.19h5.2Z"/><path d="M154.62,76.73h-5.19v5.19h5.19Z"/><path d="M159.82,76.73h-5.2v5.19h5.2Z"/><path d="M191,76.73h-5.19v5.19H191Z"/><path d="M196.17,76.73H191v5.19h5.19Z"/><path d="M201.36,76.73h-5.19v5.19h5.19Z"/><path d="M211.75,76.73h-5.19v5.19h5.19Z"/><path d="M232.52,76.73h-5.19v5.19h5.19Z"/><path d="M242.91,76.73h-5.2v5.19h5.2Z"/><path d="M35.18,81.92H30v5.19h5.19Z"/><path d="M45.57,81.92H40.38v5.19h5.19Z"/><path d="M66.34,81.92H61.15v5.19h5.19Z"/><path d="M81.92,81.92H76.73v5.19h5.19Z"/><path d="M87.11,81.92H81.92v5.19h5.19Z"/><path d="M92.31,81.92h-5.2v5.19h5.2Z"/><path d="M97.5,81.92H92.31v5.19H97.5Z"/><path d="M107.88,81.92h-5.19v5.19h5.19Z"/><path d="M118.27,81.92h-5.19v5.19h5.19Z"/><path d="M128.66,81.92h-5.2v5.19h5.2Z"/><path d="M139,81.92h-5.19v5.19H139Z"/><path d="M175.4,81.92h-5.2v5.19h5.2Z"/><path d="M191,81.92h-5.19v5.19H191Z"/><path d="M206.55,81.92h-5.19v5.19h5.19Z"/><path d="M227.33,81.92h-5.2v5.19h5.2Z"/><path d="M237.71,81.92h-5.19v5.19h5.19Z"/><path d="M248.1,81.92h-5.19v5.19h5.19Z"/><path d="M24.8,87.11H19.6v5.2h5.2Z"/><path d="M30,87.11H24.8v5.2H30Z"/><path d="M35.18,87.11H30v5.2h5.19Z"/><path d="M40.38,87.11h-5.2v5.2h5.2Z"/><path d="M50.76,87.11H45.57v5.2h5.19Z"/><path d="M61.15,87.11H56v5.2h5.2Z"/><path d="M71.53,87.11H66.34v5.2h5.19Z"/><path d="M87.11,87.11H81.92v5.2h5.19Z"/><path d="M92.31,87.11h-5.2v5.2h5.2Z"/><path d="M118.27,87.11h-5.19v5.2h5.19Z"/><path d="M123.46,87.11h-5.19v5.2h5.19Z"/><path d="M128.66,87.11h-5.2v5.2h5.2Z"/><path d="M139,87.11h-5.19v5.2H139Z"/><path d="M144.24,87.11H139v5.2h5.2Z"/><path d="M154.62,87.11h-5.19v5.2h5.19Z"/><path d="M159.82,87.11h-5.2v5.2h5.2Z"/><path d="M170.2,87.11H165v5.2h5.19Z"/><path d="M180.59,87.11H175.4v5.2h5.19Z"/><path d="M196.17,87.11H191v5.2h5.19Z"/><path d="M206.55,87.11h-5.19v5.2h5.19Z"/><path d="M211.75,87.11h-5.19v5.2h5.19Z"/><path d="M216.94,87.11h-5.19v5.2h5.19Z"/><path d="M222.13,87.11h-5.19v5.2h5.19Z"/><path d="M237.71,87.11h-5.19v5.2h5.19Z"/><path d="M242.91,87.11h-5.2v5.2h5.2Z"/><path d="M19.6,92.31H14.41V97.5H19.6Z"/><path d="M35.18,92.31H30V97.5h5.19Z"/><path d="M61.15,92.31H56V97.5h5.2Z"/><path d="M81.92,92.31H76.73V97.5h5.19Z"/><path d="M92.31,92.31h-5.2V97.5h5.2Z"/><path d="M107.88,92.31h-5.19V97.5h5.19Z"/><path d="M113.08,92.31h-5.19V97.5h5.19Z"/><path d="M128.66,92.31h-5.2V97.5h5.2Z"/><path d="M139,92.31h-5.19V97.5H139Z"/><path d="M154.62,92.31h-5.19V97.5h5.19Z"/><path d="M159.82,92.31h-5.2V97.5h5.2Z"/><path d="M165,92.31h-5.19V97.5H165Z"/><path d="M175.4,92.31h-5.2V97.5h5.2Z"/><path d="M185.78,92.31h-5.19V97.5h5.19Z"/><path d="M191,92.31h-5.19V97.5H191Z"/><path d="M211.75,92.31h-5.19V97.5h5.19Z"/><path d="M216.94,92.31h-5.19V97.5h5.19Z"/><path d="M227.33,92.31h-5.2V97.5h5.2Z"/><path d="M232.52,92.31h-5.19V97.5h5.19Z"/><path d="M237.71,92.31h-5.19V97.5h5.19Z"/><path d="M30,97.5H24.8v5.19H30Z"/><path d="M35.18,97.5H30v5.19h5.19Z"/><path d="M50.76,97.5H45.57v5.19h5.19Z"/><path d="M56,97.5H50.76v5.19H56Z"/><path d="M61.15,97.5H56v5.19h5.2Z"/><path d="M66.34,97.5H61.15v5.19h5.19Z"/><path d="M87.11,97.5H81.92v5.19h5.19Z"/><path d="M92.31,97.5h-5.2v5.19h5.2Z"/><path d="M102.69,97.5H97.5v5.19h5.19Z"/><path d="M113.08,97.5h-5.19v5.19h5.19Z"/><path d="M133.85,97.5h-5.19v5.19h5.19Z"/><path d="M144.24,97.5H139v5.19h5.2Z"/><path d="M149.43,97.5h-5.19v5.19h5.19Z"/><path d="M154.62,97.5h-5.19v5.19h5.19Z"/><path d="M170.2,97.5H165v5.19h5.19Z"/><path d="M175.4,97.5h-5.2v5.19h5.2Z"/><path d="M196.17,97.5H191v5.19h5.19Z"/><path d="M216.94,97.5h-5.19v5.19h5.19Z"/><path d="M232.52,97.5h-5.19v5.19h5.19Z"/><path d="M242.91,97.5h-5.2v5.19h5.2Z"/><path d="M30,102.69H24.8v5.2H30Z"/><path d="M35.18,102.69H30v5.2h5.19Z"/><path d="M66.34,102.69H61.15v5.2h5.19Z"/><path d="M71.53,102.69H66.34v5.2h5.19Z"/><path d="M76.73,102.69h-5.2v5.2h5.2Z"/><path d="M97.5,102.69H92.31v5.2H97.5Z"/><path d="M123.46,102.69h-5.19v5.2h5.19Z"/><path d="M128.66,102.69h-5.2v5.2h5.2Z"/><path d="M139,102.69h-5.19v5.2H139Z"/><path d="M149.43,102.69h-5.19v5.2h5.19Z"/><path d="M170.2,102.69H165v5.2h5.19Z"/><path d="M175.4,102.69h-5.2v5.2h5.2Z"/><path d="M180.59,102.69H175.4v5.2h5.19Z"/><path d="M185.78,102.69h-5.19v5.2h5.19Z"/><path d="M201.36,102.69h-5.19v5.2h5.19Z"/><path d="M206.55,102.69h-5.19v5.2h5.19Z"/><path d="M211.75,102.69h-5.19v5.2h5.19Z"/><path d="M227.33,102.69h-5.2v5.2h5.2Z"/><path d="M232.52,102.69h-5.19v5.2h5.19Z"/><path d="M242.91,102.69h-5.2v5.2h5.2Z"/><path d="M248.1,102.69h-5.19v5.2h5.19Z"/><path d="M19.6,107.89H14.41v5.19H19.6Z"/><path d="M24.8,107.89H19.6v5.19h5.2Z"/><path d="M30,107.89H24.8v5.19H30Z"/><path d="M35.18,107.89H30v5.19h5.19Z"/><path d="M40.38,107.89h-5.2v5.19h5.2Z"/><path d="M50.76,107.89H45.57v5.19h5.19Z"/><path d="M56,107.89H50.76v5.19H56Z"/><path d="M71.53,107.89H66.34v5.19h5.19Z"/><path d="M92.31,107.89h-5.2v5.19h5.2Z"/><path d="M97.5,107.89H92.31v5.19H97.5Z"/><path d="M113.08,107.89h-5.19v5.19h5.19Z"/><path d="M118.27,107.89h-5.19v5.19h5.19Z"/><path d="M123.46,107.89h-5.19v5.19h5.19Z"/><path d="M128.66,107.89h-5.2v5.19h5.2Z"/><path d="M144.24,107.89H139v5.19h5.2Z"/><path d="M159.82,107.89h-5.2v5.19h5.2Z"/><path d="M165,107.89h-5.19v5.19H165Z"/><path d="M191,107.89h-5.19v5.19H191Z"/><path d="M196.17,107.89H191v5.19h5.19Z"/><path d="M206.55,107.89h-5.19v5.19h5.19Z"/><path d="M216.94,107.89h-5.19v5.19h5.19Z"/><path d="M232.52,107.89h-5.19v5.19h5.19Z"/><path d="M237.71,107.89h-5.19v5.19h5.19Z"/><path d="M242.91,107.89h-5.2v5.19h5.2Z"/><path d="M24.8,113.08H19.6v5.19h5.2Z"/><path d="M30,113.08H24.8v5.19H30Z"/><path d="M35.18,113.08H30v5.19h5.19Z"/><path d="M45.57,113.08H40.38v5.19h5.19Z"/><path d="M66.34,113.08H61.15v5.19h5.19Z"/><path d="M97.5,113.08H92.31v5.19H97.5Z"/><path d="M102.69,113.08H97.5v5.19h5.19Z"/><path d="M107.88,113.08h-5.19v5.19h5.19Z"/><path d="M128.66,113.08h-5.2v5.19h5.2Z"/><path d="M159.82,113.08h-5.2v5.19h5.2Z"/><path d="M165,113.08h-5.19v5.19H165Z"/><path d="M170.2,113.08H165v5.19h5.19Z"/><path d="M175.4,113.08h-5.2v5.19h5.2Z"/><path d="M180.59,113.08H175.4v5.19h5.19Z"/><path d="M185.78,113.08h-5.19v5.19h5.19Z"/><path d="M191,113.08h-5.19v5.19H191Z"/><path d="M201.36,113.08h-5.19v5.19h5.19Z"/><path d="M211.75,113.08h-5.19v5.19h5.19Z"/><path d="M227.33,113.08h-5.2v5.19h5.2Z"/><path d="M237.71,113.08h-5.19v5.19h5.19Z"/><path d="M35.18,118.27H30v5.19h5.19Z"/><path d="M40.38,118.27h-5.2v5.19h5.2Z"/><path d="M45.57,118.27H40.38v5.19h5.19Z"/><path d="M50.76,118.27H45.57v5.19h5.19Z"/><path d="M56,118.27H50.76v5.19H56Z"/><path d="M61.15,118.27H56v5.19h5.2Z"/><path d="M66.34,118.27H61.15v5.19h5.19Z"/><path d="M76.73,118.27h-5.2v5.19h5.2Z"/><path d="M81.92,118.27H76.73v5.19h5.19Z"/><path d="M102.69,118.27H97.5v5.19h5.19Z"/><path d="M113.08,118.27h-5.19v5.19h5.19Z"/><path d="M118.27,118.27h-5.19v5.19h5.19Z"/><path d="M123.46,118.27h-5.19v5.19h5.19Z"/><path d="M128.66,118.27h-5.2v5.19h5.2Z"/><path d="M133.85,118.27h-5.19v5.19h5.19Z"/><path d="M139,118.27h-5.19v5.19H139Z"/><path d="M144.24,118.27H139v5.19h5.2Z"/><path d="M149.43,118.27h-5.19v5.19h5.19Z"/><path d="M159.82,118.27h-5.2v5.19h5.2Z"/><path d="M191,118.27h-5.19v5.19H191Z"/><path d="M201.36,118.27h-5.19v5.19h5.19Z"/><path d="M206.55,118.27h-5.19v5.19h5.19Z"/><path d="M211.75,118.27h-5.19v5.19h5.19Z"/><path d="M216.94,118.27h-5.19v5.19h5.19Z"/><path d="M222.13,118.27h-5.19v5.19h5.19Z"/><path d="M227.33,118.27h-5.2v5.19h5.2Z"/><path d="M242.91,118.27h-5.2v5.19h5.2Z"/><path d="M19.6,123.46H14.41v5.2H19.6Z"/><path d="M24.8,123.46H19.6v5.2h5.2Z"/><path d="M30,123.46H24.8v5.2H30Z"/><path d="M40.38,123.46h-5.2v5.2h5.2Z"/><path d="M61.15,123.46H56v5.2h5.2Z"/><path d="M71.53,123.46H66.34v5.2h5.19Z"/><path d="M81.92,123.46H76.73v5.2h5.19Z"/><path d="M87.11,123.46H81.92v5.2h5.19Z"/><path d="M92.31,123.46h-5.2v5.2h5.2Z"/><path d="M97.5,123.46H92.31v5.2H97.5Z"/><path d="M107.88,123.46h-5.19v5.2h5.19Z"/><path d="M123.46,123.46h-5.19v5.2h5.19Z"/><path d="M144.24,123.46H139v5.2h5.2Z"/><path d="M170.2,123.46H165v5.2h5.19Z"/><path d="M175.4,123.46h-5.2v5.2h5.2Z"/><path d="M180.59,123.46H175.4v5.2h5.19Z"/><path d="M201.36,123.46h-5.19v5.2h5.19Z"/><path d="M206.55,123.46h-5.19v5.2h5.19Z"/><path d="M227.33,123.46h-5.2v5.2h5.2Z"/><path d="M237.71,123.46h-5.19v5.2h5.19Z"/><path d="M242.91,123.46h-5.2v5.2h5.2Z"/><path d="M248.1,123.46h-5.19v5.2h5.19Z"/><path d="M24.8,128.66H19.6v5.19h5.2Z"/><path d="M30,128.66H24.8v5.19H30Z"/><path d="M40.38,128.66h-5.2v5.19h5.2Z"/><path d="M50.76,128.66H45.57v5.19h5.19Z"/><path d="M61.15,128.66H56v5.19h5.2Z"/><path d="M71.53,128.66H66.34v5.19h5.19Z"/><path d="M76.73,128.66h-5.2v5.19h5.2Z"/><path d="M81.92,128.66H76.73v5.19h5.19Z"/><path d="M97.5,128.66H92.31v5.19H97.5Z"/><path d="M107.88,128.66h-5.19v5.19h5.19Z"/><path d="M123.46,128.66h-5.19v5.19h5.19Z"/><path d="M133.85,128.66h-5.19v5.19h5.19Z"/><path d="M144.24,128.66H139v5.19h5.2Z"/><path d="M149.43,128.66h-5.19v5.19h5.19Z"/><path d="M154.62,128.66h-5.19v5.19h5.19Z"/><path d="M196.17,128.66H191v5.19h5.19Z"/><path d="M201.36,128.66h-5.19v5.19h5.19Z"/><path d="M206.55,128.66h-5.19v5.19h5.19Z"/><path d="M216.94,128.66h-5.19v5.19h5.19Z"/><path d="M227.33,128.66h-5.2v5.19h5.2Z"/><path d="M232.52,128.66h-5.19v5.19h5.19Z"/><path d="M242.91,128.66h-5.2v5.19h5.2Z"/><path d="M19.6,133.85H14.41V139H19.6Z"/><path d="M24.8,133.85H19.6V139h5.2Z"/><path d="M30,133.85H24.8V139H30Z"/><path d="M35.18,133.85H30V139h5.19Z"/><path d="M40.38,133.85h-5.2V139h5.2Z"/><path d="M61.15,133.85H56V139h5.2Z"/><path d="M66.34,133.85H61.15V139h5.19Z"/><path d="M76.73,133.85h-5.2V139h5.2Z"/><path d="M81.92,133.85H76.73V139h5.19Z"/><path d="M87.11,133.85H81.92V139h5.19Z"/><path d="M97.5,133.85H92.31V139H97.5Z"/><path d="M102.69,133.85H97.5V139h5.19Z"/><path d="M123.46,133.85h-5.19V139h5.19Z"/><path d="M144.24,133.85H139V139h5.2Z"/><path d="M149.43,133.85h-5.19V139h5.19Z"/><path d="M159.82,133.85h-5.2V139h5.2Z"/><path d="M165,133.85h-5.19V139H165Z"/><path d="M175.4,133.85h-5.2V139h5.2Z"/><path d="M180.59,133.85H175.4V139h5.19Z"/><path d="M185.78,133.85h-5.19V139h5.19Z"/><path d="M196.17,133.85H191V139h5.19Z"/><path d="M206.55,133.85h-5.19V139h5.19Z"/><path d="M227.33,133.85h-5.2V139h5.2Z"/><path d="M237.71,133.85h-5.19V139h5.19Z"/><path d="M242.91,133.85h-5.2V139h5.2Z"/><path d="M24.8,139H19.6v5.2h5.2Z"/><path d="M30,139H24.8v5.2H30Z"/><path d="M40.38,139h-5.2v5.2h5.2Z"/><path d="M45.57,139H40.38v5.2h5.19Z"/><path d="M50.76,139H45.57v5.2h5.19Z"/><path d="M56,139H50.76v5.2H56Z"/><path d="M61.15,139H56v5.2h5.2Z"/><path d="M71.53,139H66.34v5.2h5.19Z"/><path d="M81.92,139H76.73v5.2h5.19Z"/><path d="M102.69,139H97.5v5.2h5.19Z"/><path d="M113.08,139h-5.19v5.2h5.19Z"/><path d="M118.27,139h-5.19v5.2h5.19Z"/><path d="M123.46,139h-5.19v5.2h5.19Z"/><path d="M128.66,139h-5.2v5.2h5.2Z"/><path d="M133.85,139h-5.19v5.2h5.19Z"/><path d="M139,139h-5.19v5.2H139Z"/><path d="M144.24,139H139v5.2h5.2Z"/><path d="M149.43,139h-5.19v5.2h5.19Z"/><path d="M170.2,139H165v5.2h5.19Z"/><path d="M180.59,139H175.4v5.2h5.19Z"/><path d="M196.17,139H191v5.2h5.19Z"/><path d="M206.55,139h-5.19v5.2h5.19Z"/><path d="M211.75,139h-5.19v5.2h5.19Z"/><path d="M216.94,139h-5.19v5.2h5.19Z"/><path d="M222.13,139h-5.19v5.2h5.19Z"/><path d="M227.33,139h-5.2v5.2h5.2Z"/><path d="M232.52,139h-5.19v5.2h5.19Z"/><path d="M19.6,144.24H14.41v5.19H19.6Z"/><path d="M45.57,144.24H40.38v5.19h5.19Z"/><path d="M56,144.24H50.76v5.19H56Z"/><path d="M61.15,144.24H56v5.19h5.2Z"/><path d="M66.34,144.24H61.15v5.19h5.19Z"/><path d="M76.73,144.24h-5.2v5.19h5.2Z"/><path d="M87.11,144.24H81.92v5.19h5.19Z"/><path d="M97.5,144.24H92.31v5.19H97.5Z"/><path d="M107.88,144.24h-5.19v5.19h5.19Z"/><path d="M118.27,144.24h-5.19v5.19h5.19Z"/><path d="M133.85,144.24h-5.19v5.19h5.19Z"/><path d="M139,144.24h-5.19v5.19H139Z"/><path d="M149.43,144.24h-5.19v5.19h5.19Z"/><path d="M159.82,144.24h-5.2v5.19h5.2Z"/><path d="M170.2,144.24H165v5.19h5.19Z"/><path d="M175.4,144.24h-5.2v5.19h5.2Z"/><path d="M206.55,144.24h-5.19v5.19h5.19Z"/><path d="M222.13,144.24h-5.19v5.19h5.19Z"/><path d="M237.71,144.24h-5.19v5.19h5.19Z"/><path d="M242.91,144.24h-5.2v5.19h5.2Z"/><path d="M248.1,144.24h-5.19v5.19h5.19Z"/><path d="M19.6,149.43H14.41v5.19H19.6Z"/><path d="M24.8,149.43H19.6v5.19h5.2Z"/><path d="M30,149.43H24.8v5.19H30Z"/><path d="M45.57,149.43H40.38v5.19h5.19Z"/><path d="M50.76,149.43H45.57v5.19h5.19Z"/><path d="M56,149.43H50.76v5.19H56Z"/><path d="M66.34,149.43H61.15v5.19h5.19Z"/><path d="M71.53,149.43H66.34v5.19h5.19Z"/><path d="M97.5,149.43H92.31v5.19H97.5Z"/><path d="M102.69,149.43H97.5v5.19h5.19Z"/><path d="M107.88,149.43h-5.19v5.19h5.19Z"/><path d="M113.08,149.43h-5.19v5.19h5.19Z"/><path d="M123.46,149.43h-5.19v5.19h5.19Z"/><path d="M128.66,149.43h-5.2v5.19h5.2Z"/><path d="M139,149.43h-5.19v5.19H139Z"/><path d="M149.43,149.43h-5.19v5.19h5.19Z"/><path d="M154.62,149.43h-5.19v5.19h5.19Z"/><path d="M165,149.43h-5.19v5.19H165Z"/><path d="M191,149.43h-5.19v5.19H191Z"/><path d="M196.17,149.43H191v5.19h5.19Z"/><path d="M206.55,149.43h-5.19v5.19h5.19Z"/><path d="M232.52,149.43h-5.19v5.19h5.19Z"/><path d="M237.71,149.43h-5.19v5.19h5.19Z"/><path d="M242.91,149.43h-5.2v5.19h5.2Z"/><path d="M24.8,154.62H19.6v5.2h5.2Z"/><path d="M30,154.62H24.8v5.2H30Z"/><path d="M35.18,154.62H30v5.2h5.19Z"/><path d="M76.73,154.62h-5.2v5.2h5.2Z"/><path d="M92.31,154.62h-5.2v5.2h5.2Z"/><path d="M97.5,154.62H92.31v5.2H97.5Z"/><path d="M107.88,154.62h-5.19v5.2h5.19Z"/><path d="M118.27,154.62h-5.19v5.2h5.19Z"/><path d="M133.85,154.62h-5.19v5.2h5.19Z"/><path d="M139,154.62h-5.19v5.2H139Z"/><path d="M144.24,154.62H139v5.2h5.2Z"/><path d="M165,154.62h-5.19v5.2H165Z"/><path d="M175.4,154.62h-5.2v5.2h5.2Z"/><path d="M180.59,154.62H175.4v5.2h5.19Z"/><path d="M185.78,154.62h-5.19v5.2h5.19Z"/><path d="M191,154.62h-5.19v5.2H191Z"/><path d="M196.17,154.62H191v5.2h5.19Z"/><path d="M201.36,154.62h-5.19v5.2h5.19Z"/><path d="M216.94,154.62h-5.19v5.2h5.19Z"/><path d="M222.13,154.62h-5.19v5.2h5.19Z"/><path d="M237.71,154.62h-5.19v5.2h5.19Z"/><path d="M19.6,159.82H14.41V165H19.6Z"/><path d="M35.18,159.82H30V165h5.19Z"/><path d="M45.57,159.82H40.38V165h5.19Z"/><path d="M50.76,159.82H45.57V165h5.19Z"/><path d="M56,159.82H50.76V165H56Z"/><path d="M61.15,159.82H56V165h5.2Z"/><path d="M71.53,159.82H66.34V165h5.19Z"/><path d="M102.69,159.82H97.5V165h5.19Z"/><path d="M113.08,159.82h-5.19V165h5.19Z"/><path d="M128.66,159.82h-5.2V165h5.2Z"/><path d="M139,159.82h-5.19V165H139Z"/><path d="M144.24,159.82H139V165h5.2Z"/><path d="M149.43,159.82h-5.19V165h5.19Z"/><path d="M154.62,159.82h-5.19V165h5.19Z"/><path d="M159.82,159.82h-5.2V165h5.2Z"/><path d="M170.2,159.82H165V165h5.19Z"/><path d="M191,159.82h-5.19V165H191Z"/><path d="M211.75,159.82h-5.19V165h5.19Z"/><path d="M227.33,159.82h-5.2V165h5.2Z"/><path d="M232.52,159.82h-5.19V165h5.19Z"/><path d="M248.1,159.82h-5.19V165h5.19Z"/><path d="M19.6,165H14.41v5.19H19.6Z"/><path d="M24.8,165H19.6v5.19h5.2Z"/><path d="M30,165H24.8v5.19H30Z"/><path d="M45.57,165H40.38v5.19h5.19Z"/><path d="M56,165H50.76v5.19H56Z"/><path d="M61.15,165H56v5.19h5.2Z"/><path d="M66.34,165H61.15v5.19h5.19Z"/><path d="M71.53,165H66.34v5.19h5.19Z"/><path d="M81.92,165H76.73v5.19h5.19Z"/><path d="M92.31,165h-5.2v5.19h5.2Z"/><path d="M97.5,165H92.31v5.19H97.5Z"/><path d="M118.27,165h-5.19v5.19h5.19Z"/><path d="M133.85,165h-5.19v5.19h5.19Z"/><path d="M139,165h-5.19v5.19H139Z"/><path d="M144.24,165H139v5.19h5.2Z"/><path d="M149.43,165h-5.19v5.19h5.19Z"/><path d="M159.82,165h-5.2v5.19h5.2Z"/><path d="M175.4,165h-5.2v5.19h5.2Z"/><path d="M180.59,165H175.4v5.19h5.19Z"/><path d="M191,165h-5.19v5.19H191Z"/><path d="M201.36,165h-5.19v5.19h5.19Z"/><path d="M211.75,165h-5.19v5.19h5.19Z"/><path d="M216.94,165h-5.19v5.19h5.19Z"/><path d="M248.1,165h-5.19v5.19h5.19Z"/><path d="M19.6,170.2H14.41v5.2H19.6Z"/><path d="M24.8,170.2H19.6v5.2h5.2Z"/><path d="M30,170.2H24.8v5.2H30Z"/><path d="M35.18,170.2H30v5.2h5.19Z"/><path d="M40.38,170.2h-5.2v5.2h5.2Z"/><path d="M50.76,170.2H45.57v5.2h5.19Z"/><path d="M87.11,170.2H81.92v5.2h5.19Z"/><path d="M92.31,170.2h-5.2v5.2h5.2Z"/><path d="M97.5,170.2H92.31v5.2H97.5Z"/><path d="M102.69,170.2H97.5v5.2h5.19Z"/><path d="M123.46,170.2h-5.19v5.2h5.19Z"/><path d="M154.62,170.2h-5.19v5.2h5.19Z"/><path d="M170.2,170.2H165v5.2h5.19Z"/><path d="M185.78,170.2h-5.19v5.2h5.19Z"/><path d="M196.17,170.2H191v5.2h5.19Z"/><path d="M211.75,170.2h-5.19v5.2h5.19Z"/><path d="M227.33,170.2h-5.2v5.2h5.2Z"/><path d="M242.91,170.2h-5.2v5.2h5.2Z"/><path d="M30,175.4H24.8v5.19H30Z"/><path d="M35.18,175.4H30v5.19h5.19Z"/><path d="M40.38,175.4h-5.2v5.19h5.2Z"/><path d="M66.34,175.4H61.15v5.19h5.19Z"/><path d="M92.31,175.4h-5.2v5.19h5.2Z"/><path d="M102.69,175.4H97.5v5.19h5.19Z"/><path d="M113.08,175.4h-5.19v5.19h5.19Z"/><path d="M118.27,175.4h-5.19v5.19h5.19Z"/><path d="M123.46,175.4h-5.19v5.19h5.19Z"/><path d="M128.66,175.4h-5.2v5.19h5.2Z"/><path d="M144.24,175.4H139v5.19h5.2Z"/><path d="M154.62,175.4h-5.19v5.19h5.19Z"/><path d="M159.82,175.4h-5.2v5.19h5.2Z"/><path d="M165,175.4h-5.19v5.19H165Z"/><path d="M170.2,175.4H165v5.19h5.19Z"/><path d="M175.4,175.4h-5.2v5.19h5.2Z"/><path d="M180.59,175.4H175.4v5.19h5.19Z"/><path d="M185.78,175.4h-5.19v5.19h5.19Z"/><path d="M196.17,175.4H191v5.19h5.19Z"/><path d="M201.36,175.4h-5.19v5.19h5.19Z"/><path d="M206.55,175.4h-5.19v5.19h5.19Z"/><path d="M216.94,175.4h-5.19v5.19h5.19Z"/><path d="M237.71,175.4h-5.19v5.19h5.19Z"/><path d="M40.38,180.59h-5.2v5.19h5.2Z"/><path d="M45.57,180.59H40.38v5.19h5.19Z"/><path d="M50.76,180.59H45.57v5.19h5.19Z"/><path d="M61.15,180.59H56v5.19h5.2Z"/><path d="M71.53,180.59H66.34v5.19h5.19Z"/><path d="M76.73,180.59h-5.2v5.19h5.2Z"/><path d="M81.92,180.59H76.73v5.19h5.19Z"/><path d="M87.11,180.59H81.92v5.19h5.19Z"/><path d="M92.31,180.59h-5.2v5.19h5.2Z"/><path d="M102.69,180.59H97.5v5.19h5.19Z"/><path d="M113.08,180.59h-5.19v5.19h5.19Z"/><path d="M123.46,180.59h-5.19v5.19h5.19Z"/><path d="M128.66,180.59h-5.2v5.19h5.2Z"/><path d="M144.24,180.59H139v5.19h5.2Z"/><path d="M170.2,180.59H165v5.19h5.19Z"/><path d="M175.4,180.59h-5.2v5.19h5.2Z"/><path d="M180.59,180.59H175.4v5.19h5.19Z"/><path d="M222.13,180.59h-5.19v5.19h5.19Z"/><path d="M227.33,180.59h-5.2v5.19h5.2Z"/><path d="M242.91,180.59h-5.2v5.19h5.2Z"/><path d="M24.8,185.78H19.6V191h5.2Z"/><path d="M30,185.78H24.8V191H30Z"/><path d="M66.34,185.78H61.15V191h5.19Z"/><path d="M81.92,185.78H76.73V191h5.19Z"/><path d="M97.5,185.78H92.31V191H97.5Z"/><path d="M107.88,185.78h-5.19V191h5.19Z"/><path d="M118.27,185.78h-5.19V191h5.19Z"/><path d="M133.85,185.78h-5.19V191h5.19Z"/><path d="M144.24,185.78H139V191h5.2Z"/><path d="M149.43,185.78h-5.19V191h5.19Z"/><path d="M165,185.78h-5.19V191H165Z"/><path d="M175.4,185.78h-5.2V191h5.2Z"/><path d="M180.59,185.78H175.4V191h5.19Z"/><path d="M191,185.78h-5.19V191H191Z"/><path d="M201.36,185.78h-5.19V191h5.19Z"/><path d="M206.55,185.78h-5.19V191h5.19Z"/><path d="M211.75,185.78h-5.19V191h5.19Z"/><path d="M222.13,185.78h-5.19V191h5.19Z"/><path d="M232.52,185.78h-5.19V191h5.19Z"/><path d="M237.71,185.78h-5.19V191h5.19Z"/><path d="M248.1,185.78h-5.19V191h5.19Z"/><path d="M40.38,191h-5.2v5.19h5.2Z"/><path d="M50.76,191H45.57v5.19h5.19Z"/><path d="M56,191H50.76v5.19H56Z"/><path d="M61.15,191H56v5.19h5.2Z"/><path d="M66.34,191H61.15v5.19h5.19Z"/><path d="M71.53,191H66.34v5.19h5.19Z"/><path d="M76.73,191h-5.2v5.19h5.2Z"/><path d="M81.92,191H76.73v5.19h5.19Z"/><path d="M87.11,191H81.92v5.19h5.19Z"/><path d="M92.31,191h-5.2v5.19h5.2Z"/><path d="M102.69,191H97.5v5.19h5.19Z"/><path d="M107.88,191h-5.19v5.19h5.19Z"/><path d="M128.66,191h-5.2v5.19h5.2Z"/><path d="M149.43,191h-5.19v5.19h5.19Z"/><path d="M154.62,191h-5.19v5.19h5.19Z"/><path d="M165,191h-5.19v5.19H165Z"/><path d="M191,191h-5.19v5.19H191Z"/><path d="M196.17,191H191v5.19h5.19Z"/><path d="M206.55,191h-5.19v5.19h5.19Z"/><path d="M237.71,191h-5.19v5.19h5.19Z"/><path d="M242.91,191h-5.2v5.19h5.2Z"/><path d="M24.8,196.17H19.6v5.19h5.2Z"/><path d="M30,196.17H24.8v5.19H30Z"/><path d="M35.18,196.17H30v5.19h5.19Z"/><path d="M40.38,196.17h-5.2v5.19h5.2Z"/><path d="M61.15,196.17H56v5.19h5.2Z"/><path d="M66.34,196.17H61.15v5.19h5.19Z"/><path d="M81.92,196.17H76.73v5.19h5.19Z"/><path d="M97.5,196.17H92.31v5.19H97.5Z"/><path d="M113.08,196.17h-5.19v5.19h5.19Z"/><path d="M118.27,196.17h-5.19v5.19h5.19Z"/><path d="M123.46,196.17h-5.19v5.19h5.19Z"/><path d="M128.66,196.17h-5.2v5.19h5.2Z"/><path d="M139,196.17h-5.19v5.19H139Z"/><path d="M144.24,196.17H139v5.19h5.2Z"/><path d="M149.43,196.17h-5.19v5.19h5.19Z"/><path d="M159.82,196.17h-5.2v5.19h5.2Z"/><path d="M165,196.17h-5.19v5.19H165Z"/><path d="M170.2,196.17H165v5.19h5.19Z"/><path d="M175.4,196.17h-5.2v5.19h5.2Z"/><path d="M180.59,196.17H175.4v5.19h5.19Z"/><path d="M185.78,196.17h-5.19v5.19h5.19Z"/><path d="M191,196.17h-5.19v5.19H191Z"/><path d="M196.17,196.17H191v5.19h5.19Z"/><path d="M201.36,196.17h-5.19v5.19h5.19Z"/><path d="M211.75,196.17h-5.19v5.19h5.19Z"/><path d="M216.94,196.17h-5.19v5.19h5.19Z"/><path d="M232.52,196.17h-5.19v5.19h5.19Z"/><path d="M237.71,196.17h-5.19v5.19h5.19Z"/><path d="M242.91,196.17h-5.2v5.19h5.2Z"/><path d="M19.6,201.36H14.41v5.19H19.6Z"/><path d="M35.18,201.36H30v5.19h5.19Z"/><path d="M40.38,201.36h-5.2v5.19h5.2Z"/><path d="M50.76,201.36H45.57v5.19h5.19Z"/><path d="M61.15,201.36H56v5.19h5.2Z"/><path d="M71.53,201.36H66.34v5.19h5.19Z"/><path d="M76.73,201.36h-5.2v5.19h5.2Z"/><path d="M97.5,201.36H92.31v5.19H97.5Z"/><path d="M102.69,201.36H97.5v5.19h5.19Z"/><path d="M113.08,201.36h-5.19v5.19h5.19Z"/><path d="M118.27,201.36h-5.19v5.19h5.19Z"/><path d="M123.46,201.36h-5.19v5.19h5.19Z"/><path d="M128.66,201.36h-5.2v5.19h5.2Z"/><path d="M133.85,201.36h-5.19v5.19h5.19Z"/><path d="M139,201.36h-5.19v5.19H139Z"/><path d="M144.24,201.36H139v5.19h5.2Z"/><path d="M170.2,201.36H165v5.19h5.19Z"/><path d="M175.4,201.36h-5.2v5.19h5.2Z"/><path d="M191,201.36h-5.19v5.19H191Z"/><path d="M206.55,201.36h-5.19v5.19h5.19Z"/><path d="M211.75,201.36h-5.19v5.19h5.19Z"/><path d="M216.94,201.36h-5.19v5.19h5.19Z"/><path d="M222.13,201.36h-5.19v5.19h5.19Z"/><path d="M227.33,201.36h-5.2v5.19h5.2Z"/><path d="M61.15,206.55H56v5.2h5.2Z"/><path d="M66.34,206.55H61.15v5.2h5.19Z"/><path d="M71.53,206.55H66.34v5.2h5.19Z"/><path d="M76.73,206.55h-5.2v5.2h5.2Z"/><path d="M81.92,206.55H76.73v5.2h5.19Z"/><path d="M87.11,206.55H81.92v5.2h5.19Z"/><path d="M92.31,206.55h-5.2v5.2h5.2Z"/><path d="M97.5,206.55H92.31v5.2H97.5Z"/><path d="M107.88,206.55h-5.19v5.2h5.19Z"/><path d="M118.27,206.55h-5.19v5.2h5.19Z"/><path d="M123.46,206.55h-5.19v5.2h5.19Z"/><path d="M144.24,206.55H139v5.2h5.2Z"/><path d="M175.4,206.55h-5.2v5.2h5.2Z"/><path d="M185.78,206.55h-5.19v5.2h5.19Z"/><path d="M191,206.55h-5.19v5.2H191Z"/><path d="M201.36,206.55h-5.19v5.2h5.19Z"/><path d="M206.55,206.55h-5.19v5.2h5.19Z"/><path d="M227.33,206.55h-5.2v5.2h5.2Z"/><path d="M232.52,206.55h-5.19v5.2h5.19Z"/><path d="M248.1,206.55h-5.19v5.2h5.19Z"/><path d="M19.6,211.75H14.41v5.19H19.6Z"/><path d="M24.8,211.75H19.6v5.19h5.2Z"/><path d="M30,211.75H24.8v5.19H30Z"/><path d="M35.18,211.75H30v5.19h5.19Z"/><path d="M40.38,211.75h-5.2v5.19h5.2Z"/><path d="M45.57,211.75H40.38v5.19h5.19Z"/><path d="M50.76,211.75H45.57v5.19h5.19Z"/><path d="M61.15,211.75H56v5.19h5.2Z"/><path d="M66.34,211.75H61.15v5.19h5.19Z"/><path d="M71.53,211.75H66.34v5.19h5.19Z"/><path d="M76.73,211.75h-5.2v5.19h5.2Z"/><path d="M81.92,211.75H76.73v5.19h5.19Z"/><path d="M107.88,211.75h-5.19v5.19h5.19Z"/><path d="M113.08,211.75h-5.19v5.19h5.19Z"/><path d="M118.27,211.75h-5.19v5.19h5.19Z"/><path d="M123.46,211.75h-5.19v5.19h5.19Z"/><path d="M133.85,211.75h-5.19v5.19h5.19Z"/><path d="M144.24,211.75H139v5.19h5.2Z"/><path d="M149.43,211.75h-5.19v5.19h5.19Z"/><path d="M154.62,211.75h-5.19v5.19h5.19Z"/><path d="M170.2,211.75H165v5.19h5.19Z"/><path d="M180.59,211.75H175.4v5.19h5.19Z"/><path d="M196.17,211.75H191v5.19h5.19Z"/><path d="M201.36,211.75h-5.19v5.19h5.19Z"/><path d="M206.55,211.75h-5.19v5.19h5.19Z"/><path d="M216.94,211.75h-5.19v5.19h5.19Z"/><path d="M227.33,211.75h-5.2v5.19h5.2Z"/><path d="M232.52,211.75h-5.19v5.19h5.19Z"/><path d="M242.91,211.75h-5.2v5.19h5.2Z"/><path d="M19.6,216.94H14.41v5.19H19.6Z"/><path d="M50.76,216.94H45.57v5.19h5.19Z"/><path d="M66.34,216.94H61.15v5.19h5.19Z"/><path d="M71.53,216.94H66.34v5.19h5.19Z"/><path d="M76.73,216.94h-5.2v5.19h5.2Z"/><path d="M81.92,216.94H76.73v5.19h5.19Z"/><path d="M87.11,216.94H81.92v5.19h5.19Z"/><path d="M97.5,216.94H92.31v5.19H97.5Z"/><path d="M102.69,216.94H97.5v5.19h5.19Z"/><path d="M107.88,216.94h-5.19v5.19h5.19Z"/><path d="M113.08,216.94h-5.19v5.19h5.19Z"/><path d="M123.46,216.94h-5.19v5.19h5.19Z"/><path d="M144.24,216.94H139v5.19h5.2Z"/><path d="M159.82,216.94h-5.2v5.19h5.2Z"/><path d="M165,216.94h-5.19v5.19H165Z"/><path d="M170.2,216.94H165v5.19h5.19Z"/><path d="M185.78,216.94h-5.19v5.19h5.19Z"/><path d="M196.17,216.94H191v5.19h5.19Z"/><path d="M201.36,216.94h-5.19v5.19h5.19Z"/><path d="M206.55,216.94h-5.19v5.19h5.19Z"/><path d="M227.33,216.94h-5.2v5.19h5.2Z"/><path d="M237.71,216.94h-5.19v5.19h5.19Z"/><path d="M242.91,216.94h-5.2v5.19h5.2Z"/><path d="M248.1,216.94h-5.19v5.19h5.19Z"/><path d="M19.6,222.13H14.41v5.2H19.6Z"/><path d="M30,222.13H24.8v5.2H30Z"/><path d="M35.18,222.13H30v5.2h5.19Z"/><path d="M40.38,222.13h-5.2v5.2h5.2Z"/><path d="M50.76,222.13H45.57v5.2h5.19Z"/><path d="M61.15,222.13H56v5.2h5.2Z"/><path d="M66.34,222.13H61.15v5.2h5.19Z"/><path d="M71.53,222.13H66.34v5.2h5.19Z"/><path d="M81.92,222.13H76.73v5.2h5.19Z"/><path d="M102.69,222.13H97.5v5.2h5.19Z"/><path d="M113.08,222.13h-5.19v5.2h5.19Z"/><path d="M123.46,222.13h-5.19v5.2h5.19Z"/><path d="M128.66,222.13h-5.2v5.2h5.2Z"/><path d="M133.85,222.13h-5.19v5.2h5.19Z"/><path d="M139,222.13h-5.19v5.2H139Z"/><path d="M144.24,222.13H139v5.2h5.2Z"/><path d="M170.2,222.13H165v5.2h5.19Z"/><path d="M180.59,222.13H175.4v5.2h5.19Z"/><path d="M196.17,222.13H191v5.2h5.19Z"/><path d="M201.36,222.13h-5.19v5.2h5.19Z"/><path d="M206.55,222.13h-5.19v5.2h5.19Z"/><path d="M211.75,222.13h-5.19v5.2h5.19Z"/><path d="M216.94,222.13h-5.19v5.2h5.19Z"/><path d="M222.13,222.13h-5.19v5.2h5.19Z"/><path d="M227.33,222.13h-5.2v5.2h5.2Z"/><path d="M242.91,222.13h-5.2v5.2h5.2Z"/><path d="M248.1,222.13h-5.19v5.2h5.19Z"/><path d="M19.6,227.33H14.41v5.19H19.6Z"/><path d="M30,227.33H24.8v5.19H30Z"/><path d="M35.18,227.33H30v5.19h5.19Z"/><path d="M40.38,227.33h-5.2v5.19h5.2Z"/><path d="M50.76,227.33H45.57v5.19h5.19Z"/><path d="M61.15,227.33H56v5.19h5.2Z"/><path d="M76.73,227.33h-5.2v5.19h5.2Z"/><path d="M87.11,227.33H81.92v5.19h5.19Z"/><path d="M97.5,227.33H92.31v5.19H97.5Z"/><path d="M107.88,227.33h-5.19v5.19h5.19Z"/><path d="M118.27,227.33h-5.19v5.19h5.19Z"/><path d="M123.46,227.33h-5.19v5.19h5.19Z"/><path d="M128.66,227.33h-5.2v5.19h5.2Z"/><path d="M149.43,227.33h-5.19v5.19h5.19Z"/><path d="M165,227.33h-5.19v5.19H165Z"/><path d="M170.2,227.33H165v5.19h5.19Z"/><path d="M175.4,227.33h-5.2v5.19h5.2Z"/><path d="M180.59,227.33H175.4v5.19h5.19Z"/><path d="M201.36,227.33h-5.19v5.19h5.19Z"/><path d="M211.75,227.33h-5.19v5.19h5.19Z"/><path d="M216.94,227.33h-5.19v5.19h5.19Z"/><path d="M227.33,227.33h-5.2v5.19h5.2Z"/><path d="M232.52,227.33h-5.19v5.19h5.19Z"/><path d="M242.91,227.33h-5.2v5.19h5.2Z"/><path d="M19.6,232.52H14.41v5.19H19.6Z"/><path d="M30,232.52H24.8v5.19H30Z"/><path d="M35.18,232.52H30v5.19h5.19Z"/><path d="M40.38,232.52h-5.2v5.19h5.2Z"/><path d="M50.76,232.52H45.57v5.19h5.19Z"/><path d="M61.15,232.52H56v5.19h5.2Z"/><path d="M66.34,232.52H61.15v5.19h5.19Z"/><path d="M71.53,232.52H66.34v5.19h5.19Z"/><path d="M97.5,232.52H92.31v5.19H97.5Z"/><path d="M102.69,232.52H97.5v5.19h5.19Z"/><path d="M107.88,232.52h-5.19v5.19h5.19Z"/><path d="M113.08,232.52h-5.19v5.19h5.19Z"/><path d="M133.85,232.52h-5.19v5.19h5.19Z"/><path d="M144.24,232.52H139v5.19h5.2Z"/><path d="M149.43,232.52h-5.19v5.19h5.19Z"/><path d="M154.62,232.52h-5.19v5.19h5.19Z"/><path d="M159.82,232.52h-5.2v5.19h5.2Z"/><path d="M175.4,232.52h-5.2v5.19h5.2Z"/><path d="M180.59,232.52H175.4v5.19h5.19Z"/><path d="M185.78,232.52h-5.19v5.19h5.19Z"/><path d="M191,232.52h-5.19v5.19H191Z"/><path d="M196.17,232.52H191v5.19h5.19Z"/><path d="M201.36,232.52h-5.19v5.19h5.19Z"/><path d="M206.55,232.52h-5.19v5.19h5.19Z"/><path d="M211.75,232.52h-5.19v5.19h5.19Z"/><path d="M216.94,232.52h-5.19v5.19h5.19Z"/><path d="M232.52,232.52h-5.19v5.19h5.19Z"/><path d="M237.71,232.52h-5.19v5.19h5.19Z"/><path d="M248.1,232.52h-5.19v5.19h5.19Z"/><path d="M19.6,237.71H14.41v5.2H19.6Z"/><path d="M50.76,237.71H45.57v5.2h5.19Z"/><path d="M61.15,237.71H56v5.2h5.2Z"/><path d="M71.53,237.71H66.34v5.2h5.19Z"/><path d="M76.73,237.71h-5.2v5.2h5.2Z"/><path d="M87.11,237.71H81.92v5.2h5.19Z"/><path d="M113.08,237.71h-5.19v5.2h5.19Z"/><path d="M123.46,237.71h-5.19v5.2h5.19Z"/><path d="M128.66,237.71h-5.2v5.2h5.2Z"/><path d="M139,237.71h-5.19v5.2H139Z"/><path d="M149.43,237.71h-5.19v5.2h5.19Z"/><path d="M159.82,237.71h-5.2v5.2h5.2Z"/><path d="M165,237.71h-5.19v5.2H165Z"/><path d="M185.78,237.71h-5.19v5.2h5.19Z"/><path d="M191,237.71h-5.19v5.2H191Z"/><path d="M201.36,237.71h-5.19v5.2h5.19Z"/><path d="M206.55,237.71h-5.19v5.2h5.19Z"/><path d="M211.75,237.71h-5.19v5.2h5.19Z"/><path d="M227.33,237.71h-5.2v5.2h5.2Z"/><path d="M237.71,237.71h-5.19v5.2h5.19Z"/><path d="M19.6,242.91H14.41v5.19H19.6Z"/><path d="M24.8,242.91H19.6v5.19h5.2Z"/><path d="M30,242.91H24.8v5.19H30Z"/><path d="M35.18,242.91H30v5.19h5.19Z"/><path d="M40.38,242.91h-5.2v5.19h5.2Z"/><path d="M45.57,242.91H40.38v5.19h5.19Z"/><path d="M50.76,242.91H45.57v5.19h5.19Z"/><path d="M61.15,242.91H56v5.19h5.2Z"/><path d="M71.53,242.91H66.34v5.19h5.19Z"/><path d="M76.73,242.91h-5.2v5.19h5.2Z"/><path d="M102.69,242.91H97.5v5.19h5.19Z"/><path d="M113.08,242.91h-5.19v5.19h5.19Z"/><path d="M128.66,242.91h-5.2v5.19h5.2Z"/><path d="M144.24,242.91H139v5.19h5.2Z"/><path d="M175.4,242.91h-5.2v5.19h5.2Z"/><path d="M180.59,242.91H175.4v5.19h5.19Z"/><path d="M206.55,242.91h-5.19v5.19h5.19Z"/><path d="M216.94,242.91h-5.19v5.19h5.19Z"/><path d="M227.33,242.91h-5.2v5.19h5.2Z"/><path d="M232.52,242.91h-5.19v5.19h5.19Z"/><path d="M242.91,242.91h-5.2v5.19h5.2Z"/></g></g></svg>