<svg xmlns="http://www.w3.org/2000/svg" xmlns:xlink="http://www.w3.org/1999/xlink" x="0px" y="0px"
	 viewBox="0 0 209 46" style="enable-background:new 0 0 209 46;" xml:space="preserve">
<style type="text/css">
	.st0{fill:#FFFFFF;}
	.st1{fill:none;}
	.st2{fill:#A9FF9B;}
</style>
<g>
	<path class="st0" d="M65.1,45V1.6h7.6v35.8h18.1V45H65.1z M97.5,14h7.6v31h-7.6V14z M101.3,10c-1.1,0-2.1-0.4-2.8-1.1
		c-0.8-0.7-1.2-1.7-1.2-2.8s0.4-2,1.1-2.8c0.9-0.7,1.8-1,2.9-1s2,0.4,2.8,1.1s1.1,1.7,1.1,2.8s-0.4,2-1.1,2.8
		C103.3,9.6,102.4,10,101.3,10z M137.8,21.6l-15.6,15.9h15.6V45h-26.5v-7.6l15.6-15.9h-15.6V14h26.5V21.6z M169.1,21.6l-15.6,15.9
		h15.6V45h-26.5v-7.6l15.7-15.8h-15.6V14h26.5v7.6H169.1z M198,14h7.6v31H198l-0.3-3.8c-0.8,1.4-2,2.5-3.4,3.4
		c-1.4,0.8-3,1.3-4.9,1.3c-2.3,0-4.4-0.4-6.4-1.3c-2-0.9-3.8-2.1-5.3-3.6s-2.7-3.3-3.6-5.3c-0.8-2-1.3-4.2-1.3-6.4s0.4-4.3,1.2-6.2
		c0.8-1.9,2-3.6,3.4-5.1c1.5-1.5,3.2-2.6,5.1-3.4c1.9-0.8,4-1.2,6.2-1.2c2,0,3.9,0.5,5.5,1.4s3,2.1,4.2,3.5L198,14z M189.1,38.5
		c1.6,0,3-0.4,4.3-1.2c1.3-0.8,2.2-1.9,2.9-3.3c0.7-1.4,1.1-2.9,1.1-4.6s-0.4-3.2-1.1-4.6s-1.7-2.5-2.9-3.3
		c-1.2-0.8-2.7-1.2-4.2-1.2s-3,0.4-4.4,1.2c-1.3,0.8-2.3,1.9-3.1,3.3c-0.8,1.4-1.1,2.9-1.1,4.6s0.4,3.2,1.2,4.6
		c0.8,1.4,1.8,2.4,3.1,3.3C186.1,38.1,187.6,38.5,189.1,38.5z"/>
	<g>
		<rect x="3.3" y="0" class="st1" width="46.9" height="45"/>
		<path class="st2" d="M24.2,0l3.6,6.2L14.1,29.9h17.1l3.5,6.3H3.3L24.2,0z"/>
		<path class="st0" d="M29.4,9l20.7,36h-7L29.4,21.5c0,0-3.4,5.5-3.5,5.5s-7,0-7,0L29.4,9L29.4,9z"/>
	</g>
	<path class="st0" d="M12.1,39L8.7,45h7.2l3.3-6.1H12.1z"/>
</g>
</svg>
