<svg xmlns="http://www.w3.org/2000/svg" xmlns:xlink="http://www.w3.org/1999/xlink" x="0px" y="0px"
	 viewBox="0 0 209 46" style="enable-background:new 0 0 209 46;" xml:space="preserve">
<style type="text/css">
	.st0{fill:#394630;}
	.st1{clip-path:url(#SVGID_2_);}
	.st2{fill:#A9FF9B;}
</style>
<g>
	<path class="st0" d="M65.1,45.1V1.7h7.6v35.8h18.1v7.6H65.1z M97.5,14.1h7.6v31h-7.6V14.1z M101.4,10.1c-1.1,0-2.1-0.4-2.8-1.1
		c-0.8-0.7-1.1-1.7-1.1-2.8c0-1.1,0.4-2,1.1-2.8c0.8-0.7,1.7-1.1,2.8-1.1c1.1,0,2,0.4,2.8,1.1c0.8,0.7,1.1,1.7,1.1,2.8
		c0,1.1-0.4,2-1.1,2.8C103.4,9.7,102.5,10.1,101.4,10.1z M137.8,21.7l-15.6,15.9h15.6v7.6h-26.5v-7.6l15.6-15.9h-15.6v-7.6h26.5
		V21.7z M169.2,21.7l-15.6,15.9h15.6v7.6h-26.5v-7.6l15.6-15.9h-15.6v-7.6h26.5V21.7z M198.1,14.1h7.6v31h-7.6l-0.3-3.8
		c-0.8,1.4-2,2.5-3.4,3.4c-1.4,0.8-3,1.3-4.9,1.3c-2.3,0-4.4-0.4-6.4-1.3c-2-0.9-3.8-2.1-5.3-3.6c-1.5-1.5-2.7-3.3-3.6-5.3
		c-0.8-2-1.3-4.2-1.3-6.4c0-2.2,0.4-4.3,1.2-6.2c0.8-1.9,2-3.6,3.4-5.1c1.5-1.5,3.2-2.6,5.1-3.4s4-1.2,6.2-1.2c2,0,3.9,0.5,5.5,1.4
		c1.6,0.9,3,2.1,4.2,3.5L198.1,14.1z M189.2,38.6c1.6,0,3-0.4,4.3-1.2c1.2-0.8,2.2-1.9,2.9-3.3c0.7-1.4,1.1-2.9,1.1-4.6
		c0-1.7-0.4-3.2-1.1-4.6c-0.7-1.4-1.7-2.5-2.9-3.3c-1.2-0.8-2.7-1.2-4.2-1.2s-3,0.4-4.4,1.2c-1.3,0.8-2.3,1.9-3.1,3.3
		c-0.8,1.4-1.1,2.9-1.1,4.6s0.4,3.2,1.2,4.6c0.8,1.4,1.8,2.4,3.1,3.3C186.2,38.2,187.7,38.6,189.2,38.6z"/>
	<g>
		<defs>
			<rect id="SVGID_1_" x="3.4" y="0.1" width="46.9" height="45"/>
		</defs>
		<clipPath id="SVGID_2_">
			<use xlink:href="#SVGID_1_"  style="overflow:visible;"/>
		</clipPath>
		<g class="st1">
			<path class="st2" d="M24.3,0.1l3.6,6.2L14.2,30h17.1l3.5,6.3H3.4L24.3,0.1z"/>
			<path class="st0" d="M29.5,9.1l20.7,36h-7L29.5,21.6c0,0-3.4,5.5-3.5,5.5c-0.1,0-7,0-7,0L29.5,9.1L29.5,9.1z"/>
			<path d="M12.2,39l-3.4,6.1h7.2l3.3-6.1H12.2z"/>
		</g>
	</g>
</g>
</svg>
