<svg width="17" height="17" viewBox="0 0 24 24" fill="none" xmlns="http://www.w3.org/2000/svg">
<path d="M12.04 2C6.58 2 2.13 6.45 2.13 11.91c0 1.75.46 3.45 1.32 4.95L2 22l5.29-1.39a9.9 9.9 0 0 0 4.75 1.21h.01c5.46 0 9.9-4.45 9.9-9.91C21.96 6.45 17.5 2 12.04 2zm0 18.15h-.01a8.2 8.2 0 0 1-4.19-1.15l-.3-.18-3.12.82.83-3.04-.2-.31a8.18 8.18 0 0 1-1.26-4.38c0-4.54 3.7-8.24 8.25-8.24 2.2 0 4.27.86 5.83 2.42a8.18 8.18 0 0 1 2.42 5.83c0 4.54-3.7 8.23-8.25 8.23zm4.52-6.16c-.25-.12-1.47-.72-1.7-.81-.23-.08-.39-.12-.56.12-.17.25-.64.81-.78.97-.14.17-.29.19-.54.06-.25-.12-1.05-.39-2-1.23-.74-.66-1.24-1.47-1.39-1.72-.14-.25-.02-.38.11-.51.11-.11.25-.29.37-.43.12-.14.17-.25.25-.41.08-.17.04-.31-.02-.43-.06-.12-.56-1.34-.76-1.84-.2-.48-.4-.42-.56-.42-.14 0-.31-.02-.47-.02-.17 0-.43.06-.66.31-.23.25-.86.85-.86 2.07 0 1.22.89 2.4 1.01 2.57.12.17 1.75 2.67 4.23 3.74.59.26 1.05.41 1.41.53.59.19 1.13.16 1.56.1.48-.07 1.47-.6 1.68-1.18.21-.58.21-1.08.14-1.18-.06-.11-.23-.17-.48-.29z" fill="black"/>
</svg>
