<svg id="Layer_1" data-name="Layer 1" xmlns="http://www.w3.org/2000/svg" viewBox="0 0 548 498.32"><defs><style>.cls-1{fill:#b5b5b5;}.cls-2,.cls-3{fill:#af9f6d;}.cls-3{font-size:39.71px;font-family:Montserrat-Bold, Montserrat;font-weight:700;}</style></defs><title>vip11111 gold</title><path class="cls-1" d="M495,708" transform="translate(-141 -148)"/><path class="cls-1" d="M422,754" transform="translate(-141 -148)"/><polygon class="cls-2" points="231.38 111.02 274 111 274.17 400 252.73 441 231.38 402 231.38 111.02"/><polygon class="cls-2" points="174 111 174.11 267.17 52.77 108.81 5 108.81 214.19 382 214.19 110.63 174 111"/><text class="cls-3" transform="translate(0 487.75) scale(0.89 1)">CONSTRUCTION AND DESIGN</text><polygon class="cls-2" points="329.81 345.45 329.81 150.49 443.58 150.49 361.96 246.73 402.52 254.14 520.84 111 291 111 291 380 329.81 345.45"/><rect class="cls-2" x="233" y="62" width="17.9" height="17.23"/><rect class="cls-2" x="233" y="82.98" width="17.9" height="18.02"/><rect class="cls-2" x="254.65" y="62" width="17.35" height="17.23"/><rect class="cls-2" x="254.65" y="82.98" width="17.35" height="18.02"/><polygon class="cls-2" points="253 0 172 92 253 36 334 92 253 0"/></svg>