<svg width="100" height="100" viewBox="0 0 100 100" fill="none" xmlns="http://www.w3.org/2000/svg">
<g clip-path="url(#clip0)">
<path d="M97.9416 74.9608L62.5978 10.0393C59.9023 5.58593 55.2148 2.89062 50 2.89062C44.7851 2.89062 40.0976 5.58593 37.4021 10.0393L2.05838 74.9608C-0.636543 79.5901 -0.695332 85.0979 1.94158 89.7266C4.57811 94.3553 9.324 97.1094 14.6562 97.1094H85.3437C90.676 97.1094 95.4221 94.3553 98.0584 89.7266C100.695 85.0979 100.637 79.5901 97.9416 74.9608Z" fill="#495A79"/>
<path d="M98.0584 89.7266C95.4219 94.3553 90.676 97.1094 85.3438 97.1094H50V2.89062C55.2148 2.89062 59.9023 5.58613 62.5979 10.0393L97.9416 74.961C100.637 79.5901 100.695 85.0979 98.0584 89.7266Z" fill="#42516D"/>
<path d="M92.9021 77.9492L57.558 13.0271C55.9764 10.332 53.1053 8.74999 49.9996 8.74999C46.8939 8.74999 44.0228 10.3322 42.4412 13.0271L7.09707 77.9492C5.45664 80.7033 5.45664 84.0428 7.03887 86.7969C8.6207 89.6092 11.4916 91.25 14.6561 91.25H85.3435C88.5078 91.25 91.3789 89.6092 92.9607 86.7969C94.5426 84.0428 94.5426 80.7033 92.9021 77.9492Z" fill="#FFDE33"/>
<path d="M92.9609 86.7969C91.3791 89.6092 88.5082 91.25 85.3437 91.25H50V8.74999C53.1057 8.74999 55.9768 10.3322 57.5584 13.0271L92.9025 77.9492C94.543 80.7033 94.543 84.0428 92.9609 86.7969Z" fill="#FFBC33"/>
<path d="M50 85.3906C46.7699 85.3906 44.1406 82.7613 44.1406 79.5312C44.1406 76.3012 46.7699 73.6719 50 73.6719C53.2301 73.6719 55.8594 76.3012 55.8594 79.5312C55.8594 82.7613 53.2301 85.3906 50 85.3906Z" fill="#495A79"/>
<path d="M55.8594 61.9531C55.8594 65.1832 53.2301 67.8125 50 67.8125C46.7699 67.8125 44.1406 65.1832 44.1406 61.9531V32.6562C44.1406 29.4262 46.7699 26.7969 50 26.7969C53.2301 26.7969 55.8594 29.4262 55.8594 32.6562V61.9531Z" fill="#495A79"/>
<path d="M55.8594 79.5312C55.8594 76.3012 53.2301 73.6719 50 73.6719V85.3906C53.2301 85.3906 55.8594 82.7613 55.8594 79.5312Z" fill="#42516D"/>
<path d="M55.8594 61.9531V32.6562C55.8594 29.4262 53.2301 26.7969 50 26.7969V67.8125C53.2301 67.8125 55.8594 65.1832 55.8594 61.9531Z" fill="#42516D"/>
</g>
<defs>
<clipPath id="clip0">
<rect width="100" height="100" fill="white"/>
</clipPath>
</defs>
</svg>
