<svg width="104" height="104" viewBox="0 0 104 104" fill="none" xmlns="http://www.w3.org/2000/svg">
<path d="M52 104C80.7188 104 104 80.7188 104 52C104 23.2812 80.7188 0 52 0C23.2812 0 0 23.2812 0 52C0 80.7188 23.2812 104 52 104Z" fill="#FF4F5A"/>
<path d="M104 52C104 23.3271 80.6729 0 52 0V104C80.6729 104 104 80.6729 104 52Z" fill="#EE2885"/>
<path d="M65.5384 52L74.9221 42.616C78.655 38.8832 78.6548 32.8094 74.9219 29.0765C71.1891 25.3437 65.1153 25.3435 61.3824 29.0763L51.9987 38.4603L42.6149 29.0763C38.8821 25.3435 32.8082 25.3437 29.0752 29.0765C25.3422 32.8094 25.3422 38.8832 29.075 42.616L38.459 52L29.0752 61.3838C25.3424 65.1166 25.3424 71.1907 29.0754 74.9235C32.8084 78.6563 38.8821 78.6565 42.6151 74.9235L51.9987 65.5397L61.3824 74.9235C65.1153 78.6563 71.1891 78.6563 74.9219 74.9235C78.6548 71.1907 78.655 65.1168 74.9221 61.3838L65.5384 52Z" fill="white"/>
<path d="M74.9235 74.9235C78.6563 71.1907 78.6565 65.1168 74.9237 61.3838L65.5397 52L74.9235 42.616C78.6563 38.8832 78.6561 32.8094 74.9233 29.0765C71.1904 25.3437 65.1166 25.3435 61.3838 29.0763L52 38.4603V65.5397L61.3838 74.9235C65.1168 78.6565 71.1906 78.6563 74.9235 74.9235Z" fill="#E6F7FF"/>
</svg>
