<svg width="32" height="32" viewBox="0 0 32 32" fill="none" xmlns="http://www.w3.org/2000/svg">
<path d="M31.5 16C31.5 24.5604 24.5604 31.5 16 31.5C7.43959 31.5 0.5 24.5604 0.5 16C0.5 7.43959 7.43959 0.5 16 0.5C24.5604 0.5 31.5 7.43959 31.5 16Z" stroke="white"/>
<path d="M19.9274 8.8504H17.8902C15.6012 8.8504 14.122 10.3682 14.122 12.716V14.4987H12.0734C12.0314 14.4987 11.9898 14.507 11.951 14.5231C11.9122 14.5392 11.8769 14.5628 11.8473 14.5926C11.8176 14.6223 11.7941 14.6577 11.7781 14.6965C11.7621 14.7353 11.7539 14.777 11.754 14.819V17.4036C11.754 17.4883 11.7877 17.5696 11.8476 17.6295C11.9075 17.6893 11.9887 17.723 12.0734 17.723H14.122V24.2417C14.122 24.3264 14.1556 24.4076 14.2155 24.4675C14.2754 24.5274 14.3566 24.561 14.4413 24.561H17.1155C17.1575 24.5611 17.1991 24.553 17.238 24.537C17.2768 24.521 17.3121 24.4975 17.3419 24.4678C17.3716 24.4381 17.3952 24.4029 17.4113 24.3641C17.4274 24.3253 17.4357 24.2837 17.4357 24.2417V17.723H19.83C19.872 17.7231 19.9137 17.7149 19.9526 17.699C19.9915 17.683 20.0269 17.6595 20.0567 17.6298C20.0865 17.6002 20.1102 17.5649 20.1264 17.5261C20.1426 17.4873 20.151 17.4457 20.1511 17.4036V14.8163C20.1509 14.7313 20.117 14.6497 20.0568 14.5895C19.9966 14.5294 19.9151 14.4955 19.83 14.4952H17.4348V12.9845C17.4348 12.258 17.6103 11.8886 18.5535 11.8886H19.9265C20.0112 11.8882 20.0923 11.8543 20.1521 11.7943C20.2119 11.7343 20.2456 11.6531 20.2458 11.5684V9.16976C20.2456 9.08513 20.2119 9.00404 20.1521 8.9442C20.0922 8.88435 20.0111 8.85063 19.9265 8.8504H19.9274Z" fill="white"/>
</svg>
