<svg width="32" height="32" viewBox="0 0 32 32" fill="none" xmlns="http://www.w3.org/2000/svg">
<path d="M31.5 16C31.5 24.5604 24.5604 31.5 16 31.5C7.43959 31.5 0.5 24.5604 0.5 16C0.5 7.43959 7.43959 0.5 16 0.5C24.5604 0.5 31.5 7.43959 31.5 16Z" stroke="white"/>
<path d="M7.57742 15.9884C7.57742 14.5978 7.57742 13.2064 7.57742 11.8158C7.57124 10.807 7.92741 9.82948 8.58113 9.06112C9.23485 8.29276 10.1427 7.7846 11.1394 7.62909C11.4009 7.59174 11.665 7.5756 11.929 7.58084C14.7015 7.5785 17.4707 7.57733 20.2366 7.57733C21.3461 7.5854 22.4077 8.03043 23.1912 8.81596C23.9748 9.60148 24.4172 10.6642 24.4224 11.7737C24.4224 14.5864 24.4224 17.3992 24.4224 20.212C24.4224 21.3289 23.9788 22.4 23.189 23.1898C22.3992 23.9795 21.3281 24.4232 20.2112 24.4232C17.392 24.4232 14.5728 24.4232 11.7536 24.4232C9.65409 24.4232 7.8257 22.7922 7.61777 20.7059C7.55285 20.0541 7.58268 19.3899 7.57917 18.7345C7.57303 17.8203 7.57917 16.9053 7.57917 15.9911L7.57742 15.9884ZM23.2161 16.0165C23.2161 14.6066 23.2161 13.1976 23.2161 11.7886C23.2184 11.3933 23.1423 11.0015 22.9921 10.6358C22.8419 10.2701 22.6207 9.93787 22.3412 9.6583C22.0617 9.37873 21.7296 9.1574 21.3639 9.00712C20.9983 8.85683 20.6065 8.78059 20.2112 8.7828C17.4037 8.7828 14.5976 8.7828 11.7931 8.7828C11.3971 8.77976 11.0045 8.85557 10.6382 9.00583C10.2718 9.15608 9.93908 9.37776 9.6593 9.65795C9.37953 9.93813 9.15833 10.2712 9.00861 10.6378C8.85889 11.0043 8.78365 11.397 8.78727 11.793C8.78727 14.6005 8.78727 17.408 8.78727 20.2155C8.78423 20.6114 8.86004 21.004 9.0103 21.3704C9.16055 21.7367 9.38223 22.0695 9.66242 22.3492C9.9426 22.629 10.2757 22.8502 10.6422 22.9999C11.0088 23.1497 11.4015 23.2249 11.7974 23.2213C14.5973 23.2248 17.3972 23.2248 20.1971 23.2213C20.5961 23.226 20.9919 23.1508 21.3614 23.0002C21.7308 22.8496 22.0664 22.6265 22.3483 22.3442C22.6302 22.0619 22.8527 21.726 23.0028 21.3563C23.1529 20.9867 23.2275 20.5907 23.2222 20.1918C23.2216 18.8009 23.2205 17.4092 23.2187 16.0165H23.2161Z" fill="white"/>
<path d="M16.0128 11.789C16.5658 11.7911 17.113 11.9022 17.6231 12.1158C18.1333 12.3294 18.5963 12.6414 18.9859 13.0339C19.3754 13.4265 19.6838 13.8919 19.8935 14.4037C20.1031 14.9154 20.21 15.4635 20.2078 16.0165C20.2057 16.5695 20.0947 17.1167 19.881 17.6268C19.6674 18.1369 19.3555 18.6 18.9629 18.9895C18.5703 19.3791 18.1049 19.6875 17.5931 19.8972C17.0814 20.1068 16.5334 20.2136 15.9803 20.2115C13.6878 20.2115 11.7866 18.3024 11.7901 16.0003C11.7927 14.8822 12.2388 13.8108 13.0304 13.0212C13.8221 12.2317 14.8947 11.7885 16.0128 11.789ZM19.0089 16.0003C19.0089 15.4055 18.8326 14.824 18.5021 14.3294C18.1717 13.8349 17.702 13.4494 17.1525 13.2217C16.603 12.9941 15.9984 12.9345 15.415 13.0504C14.8316 13.1664 14.2957 13.4528 13.8751 13.8733C13.4544 14.2938 13.1679 14.8296 13.0517 15.413C12.9356 15.9963 12.995 16.601 13.2225 17.1506C13.45 17.7002 13.8354 18.1699 14.3299 18.5005C14.8243 18.8311 15.4057 19.0076 16.0005 19.0078C16.3956 19.008 16.7868 18.9304 17.1519 18.7793C17.5169 18.6283 17.8486 18.4068 18.128 18.1275C18.4074 17.8482 18.629 17.5165 18.7801 17.1515C18.9313 16.7865 19.009 16.3953 19.0089 16.0003Z" fill="white"/>
<path d="M22.0159 11.1906C22.0155 11.4291 21.9443 11.6622 21.8112 11.8602C21.6781 12.0582 21.4892 12.2122 21.2685 12.3026C21.0477 12.3931 20.8051 12.4159 20.5714 12.3682C20.3376 12.3204 20.1233 12.2043 19.9557 12.0346C19.7881 11.8649 19.6747 11.6492 19.6299 11.4149C19.585 11.1805 19.6109 10.9382 19.704 10.7186C19.7972 10.499 19.9536 10.312 20.1532 10.1814C20.3528 10.0508 20.5868 9.98251 20.8253 9.98512C21.1419 9.99062 21.4438 10.1199 21.6663 10.3452C21.8888 10.5705 22.0143 10.8739 22.0159 11.1906Z" fill="white"/>
</svg>
