<svg width="160" height="36" viewBox="0 0 160 36" fill="none" xmlns="http://www.w3.org/2000/svg">
<path d="M9.52965 36V8.10921H0V0H27.8119V8.10921H18.2413V36H9.52965Z" fill="white"/>
<path d="M52.8834 36V27.9317L68.139 8.0273H52.8834V0H78.6503V8.0273L63.3538 27.9317H78.6503V36H52.8834Z" fill="white"/>
<path d="M79.9182 36V27.9317L95.1738 8.0273H79.9182V0H105.685V8.0273L90.3886 27.9317H105.685V36H79.9182Z" fill="white"/>
<path d="M152.311 36C150.879 36 149.611 35.2218 148.916 33.9932L144.417 25.3106L139.918 33.9932C139.264 35.2218 137.955 36 136.524 36H132.965H128.916L131.084 31.7406L138.487 17.9386L128.875 0H136.564C137.996 0 139.264 0.778157 139.959 2.00683L144.458 10.6075L148.916 2.00683C149.571 0.778157 150.879 0 152.311 0H160L150.389 17.9795L160.041 36L155.951 35.959L155.215 36H152.311Z" fill="#ED1C24"/>
<path d="M122.904 21.9932L125.194 17.9795L122.904 14.0068H116.932V21.9932H122.904Z" fill="#ED1C24"/>
<path d="M115.665 23.5904V21.9932V14.0068V12V8.0273H128.875V0H106.994V36H128.875V27.9317H115.665V23.5904Z" fill="#ED1C24"/>
<path d="M45.1534 21.9932L47.4029 17.9795L45.1534 14.0068H39.182V21.9932H45.1534Z" fill="white"/>
<path d="M37.8732 23.5904V21.9932V14.0068V12V8.0273H51.5746V0H29.2025V36H51.5746V27.9317H37.8732V23.5904Z" fill="white"/>
</svg>
