<svg width="24" height="24" viewBox="0 0 24 24" fill="none" xmlns="http://www.w3.org/2000/svg">
<path d="M18.9094 10.9091C18.3069 10.9091 17.8185 11.3975 17.8185 12C17.8185 17.045 13.9934 21.2128 9.09131 21.7572V11.0892L14.1635 9.39855C14.7351 9.208 15.044 8.59018 14.8535 8.01862C14.6629 7.44705 14.045 7.13818 13.4736 7.32865L9.09131 8.78945V6.72575L14.1635 5.03505C14.7351 4.84451 15.044 4.22669 14.8535 3.65513C14.6629 3.08356 14.045 2.77469 13.4736 2.96516L9.09131 4.42589V1.09091C9.09131 0.488436 8.60287 0 8.0004 0C7.39793 0 6.90949 0.488436 6.90949 1.09091V5.15309L4.74622 5.87418C4.17466 6.06473 3.86578 6.68255 4.05626 7.25411C4.20869 7.71127 4.63429 8.00029 5.09109 8.00029C5.20542 8.00029 5.32178 7.98218 5.43625 7.94407L6.90949 7.45294V9.51665L4.74629 10.2377C4.17473 10.4282 3.86586 11.046 4.05633 11.6176C4.20876 12.0748 4.63436 12.3638 5.09116 12.3638C5.20549 12.3638 5.32185 12.3457 5.43633 12.3076L6.90956 11.8164V22.9091C6.90956 23.5116 7.398 24 8.00047 24C14.6173 24 20.0005 18.6168 20.0005 12C20.0003 11.3975 19.5119 10.9091 18.9094 10.9091Z" fill="#444444"/>
</svg>
