<svg width="32" height="32" viewBox="0 0 32 32" fill="none" xmlns="http://www.w3.org/2000/svg">
<path d="M31.5 16C31.5 24.5604 24.5604 31.5 16 31.5C7.43959 31.5 0.5 24.5604 0.5 16C0.5 7.43959 7.43959 0.5 16 0.5C24.5604 0.5 31.5 7.43959 31.5 16Z" stroke="white"/>
<path d="M21.3873 10.2946H10.6143C9.10354 10.2946 7.87878 11.5194 7.87878 13.0302V18.9689C7.87878 20.4797 9.10354 21.7045 10.6143 21.7045H21.3873C22.8981 21.7045 24.1228 20.4797 24.1228 18.9689V13.0302C24.1228 11.5194 22.8981 10.2946 21.3873 10.2946Z" fill="white"/>
<path d="M14.5043 18.2612C14.5122 16.7452 14.5192 15.2546 14.5262 13.7394L18.812 15.9652L14.5043 18.2612Z" fill="#2B2D31"/>
</svg>
