<svg width="160" height="46" viewBox="0 0 160 46" fill="none" xmlns="http://www.w3.org/2000/svg">
<path d="M25.6789 3.09082C25.6789 1.407 24.2959 0.0318829 22.6025 0.0318829C22.6025 0.0318829 3.18487 0.0318829 3.07198 0.0318829C1.09634 0.0038192 -0.427719 1.96828 0.108525 3.87661C0.475428 5.16753 1.66081 6.14976 3.07198 6.14976H9.11177L6.68456 21.3041C6.487 25.4014 12.301 25.9346 12.8655 21.8935C12.8655 21.8654 15.3774 6.14976 15.3774 6.14976C15.3774 6.14976 22.4614 6.14976 22.6025 6.14976C24.2959 6.14976 25.6789 4.77464 25.6789 3.09082Z" fill="white"/>
<path d="M49.471 6.14977C52.4062 6.14977 53.7609 2.61375 51.5595 0.761546C51.0232 0.312528 50.3459 0.0318909 49.5838 0.0318909H30.138C29.2066 0.0318909 28.3599 0.452846 27.7954 1.09831C27.4285 1.51927 27.231 2.02441 27.1463 2.55762C27.231 2.05247 24.2111 20.9113 24.1828 21.1919C23.9006 23.016 25.3682 24.6718 27.231 24.6718C27.231 24.6718 46.2253 24.6718 46.2817 24.6718C48.0598 24.6718 49.4709 23.1564 49.3581 21.4164C49.2452 19.8168 47.9187 18.5539 46.2817 18.5539H30.8718L31.3798 15.4108H43.8827C44.0803 15.4108 44.7012 15.4108 44.8988 15.4108C49.0758 15.2705 48.8783 9.40515 44.8988 9.2929C44.7294 9.2929 44.3061 9.2929 44.1367 9.2929H32.3394L32.8474 6.14977H49.471Z" fill="white"/>
<path d="M77.6664 5.44818C79.8678 3.6521 78.5978 0.0318909 75.719 0.0318909H57.0069C56.7247 0.0318909 56.4707 0.0880182 56.1885 0.144146C56.1602 0.144146 56.1602 0.172209 56.132 0.172209C54.8055 0.5651 53.8459 1.82797 53.9306 3.25921C54.0153 4.8869 55.3418 6.14977 57.0069 6.14977H67.7882C61.5227 11.5099 52.6041 19.0029 52.0396 19.6203C50.3462 21.5567 51.7574 24.6999 54.3822 24.6718C54.3822 24.6718 73.3765 24.6718 73.4894 24.6718C76.4246 24.6718 77.6664 20.9393 75.3803 19.1994C75.211 19.0591 75.0134 18.9187 74.7594 18.8345C74.2796 18.61 73.7434 18.5258 73.2071 18.5539H62.3129C62.3129 18.5539 77.2995 5.78494 77.6664 5.44818Z" fill="#FFDD00"/>
<path d="M104.225 5.44818C106.426 3.6521 105.156 0.0318909 102.277 0.0318909H83.565C83.2828 0.0318909 83.0288 0.0880182 82.7466 0.144146C82.7183 0.144146 82.7183 0.172209 82.6901 0.172209C81.3636 0.5651 80.404 1.82797 80.4887 3.25921C80.5734 4.8869 81.8999 6.14977 83.565 6.14977H94.3463C88.0808 11.5099 79.1622 19.0029 78.5977 19.6203C76.9043 21.5567 78.3155 24.6999 80.9403 24.6718C80.9403 24.6718 99.9346 24.6718 100.047 24.6718C102.983 24.6718 104.225 20.9393 101.938 19.1994C101.769 19.0591 101.572 18.9187 101.318 18.8345C100.838 18.61 100.301 18.5258 99.7652 18.5539H88.871C88.871 18.5539 103.858 5.78494 104.225 5.44818Z" fill="#FFDD00"/>
<path d="M129.964 6.14977C132.899 6.14977 134.254 2.61375 132.053 0.761546C131.516 0.312528 130.839 0.0318909 130.077 0.0318909H110.631C109.7 0.0318909 108.853 0.452846 108.289 1.09831C107.922 1.51927 107.724 2.02441 107.639 2.55762C107.724 2.05247 104.704 20.9113 104.676 21.1919C104.394 23.016 105.861 24.6718 107.724 24.6718C107.724 24.6718 126.718 24.6718 126.775 24.6718C128.553 24.6718 129.964 23.1564 129.851 21.4164C129.738 19.8168 128.412 18.5539 126.775 18.5539H111.365L111.873 15.4108H124.376C124.573 15.4108 125.194 15.4108 125.392 15.4108C129.569 15.2705 129.371 9.40515 125.392 9.2929C125.223 9.2929 124.799 9.2929 124.63 9.2929H112.833L113.341 6.14977H129.964Z" fill="white"/>
<path d="M159.852 1.96811C159.316 0.256228 157.115 -0.557618 155.563 0.452674C154.038 1.57522 146.531 8.02986 146.531 8.02986L140.378 1.07007C140.04 0.677183 139.616 0.368483 139.137 0.200101C137.217 -0.529555 134.875 0.817501 134.677 2.92228C134.564 3.84838 134.903 4.77448 135.496 5.47607C135.496 5.47607 139.757 10.4714 141.338 12.2955V12.3236L132.617 19.6763C130.5 21.5846 132.25 25.1206 135.101 24.5594C135.383 24.5032 135.693 24.3629 136.032 24.1945C137.782 22.8755 140.181 20.7708 145.12 16.6454C145.233 16.7577 150.934 23.4088 151.216 23.6613C151.95 24.391 153.079 24.7558 154.18 24.5594C154.18 24.5594 154.18 24.5594 154.208 24.5594C155.28 24.3629 156.183 23.6333 156.635 22.6791C157.171 21.5846 156.974 20.0972 156.183 19.1992C152.317 14.7371 150.257 12.3517 150.313 12.3517L159.062 4.88673C159.881 4.2132 160.219 3.00647 159.852 1.96811Z" fill="white"/>
<path d="M76.5656 46C63.0184 46 49.951 41.9588 38.831 34.3255C37.3351 33.2871 36.9682 31.2666 37.9843 29.7511C39.0285 28.2638 41.0606 27.8989 42.5847 28.9092C52.604 35.7848 64.3449 39.405 76.5656 39.405C88.7863 39.405 100.527 35.7848 110.546 28.9092C112.042 27.8709 114.103 28.2638 115.147 29.7511C116.191 31.2385 115.796 33.2871 114.3 34.3255C103.18 41.9588 90.141 46 76.5656 46Z" fill="#FFDD00"/>
</svg>
